<?xml version="1.0" encoding="utf-8"?>
<!-- Generator: Adobe Illustrator 25.2.3, SVG Export Plug-In . SVG Version: 6.00 Build 0)  -->
<svg version="1.1" id="Layer_1" xmlns="http://www.w3.org/2000/svg" xmlns:xlink="http://www.w3.org/1999/xlink" x="0px" y="0px"
	 viewBox="0 0 48 48" style="enable-background:new 0 0 48 48;" xml:space="preserve">
<path d="M14.92,19.81c-0.76,0-1.37-0.62-1.37-1.37c0-0.76,0.62-1.37,1.37-1.37s1.37,0.62,1.37,1.37
	C16.29,19.19,15.67,19.81,14.92,19.81z M14.92,18.07c-0.21,0-0.37,0.17-0.37,0.37s0.17,0.37,0.37,0.37s0.37-0.17,0.37-0.37
	S15.12,18.07,14.92,18.07z"/>
<path d="M14.92,23.47c-0.76,0-1.37-0.62-1.37-1.37s0.62-1.37,1.37-1.37s1.37,0.62,1.37,1.37S15.67,23.47,14.92,23.47z M14.92,21.73
	c-0.21,0-0.37,0.17-0.37,0.37s0.17,0.37,0.37,0.37s0.37-0.17,0.37-0.37S15.12,21.73,14.92,21.73z"/>
<path d="M14.92,27.13c-0.76,0-1.37-0.62-1.37-1.37c0-0.76,0.62-1.37,1.37-1.37s1.37,0.62,1.37,1.37
	C16.29,26.52,15.67,27.13,14.92,27.13z M14.92,25.39c-0.21,0-0.37,0.17-0.37,0.37s0.17,0.37,0.37,0.37s0.37-0.17,0.37-0.37
	S15.12,25.39,14.92,25.39z"/>
<path d="M14.92,30.8c-0.76,0-1.37-0.62-1.37-1.37s0.62-1.37,1.37-1.37s1.37,0.62,1.37,1.37S15.67,30.8,14.92,30.8z M14.92,29.05
	c-0.21,0-0.37,0.17-0.37,0.37s0.17,0.37,0.37,0.37s0.37-0.17,0.37-0.37S15.12,29.05,14.92,29.05z"/>
<path d="M19.15,19.81c-0.76,0-1.37-0.62-1.37-1.37c0-0.76,0.62-1.37,1.37-1.37s1.37,0.62,1.37,1.37
	C20.52,19.19,19.91,19.81,19.15,19.81z M19.15,18.07c-0.21,0-0.37,0.17-0.37,0.37s0.17,0.37,0.37,0.37s0.37-0.17,0.37-0.37
	S19.36,18.07,19.15,18.07z"/>
<path d="M19.15,23.47c-0.76,0-1.37-0.62-1.37-1.37s0.62-1.37,1.37-1.37s1.37,0.62,1.37,1.37S19.91,23.47,19.15,23.47z M19.15,21.73
	c-0.21,0-0.37,0.17-0.37,0.37s0.17,0.37,0.37,0.37s0.37-0.17,0.37-0.37S19.36,21.73,19.15,21.73z"/>
<path d="M19.15,27.13c-0.76,0-1.37-0.62-1.37-1.37c0-0.76,0.62-1.37,1.37-1.37s1.37,0.62,1.37,1.37
	C20.52,26.52,19.91,27.13,19.15,27.13z M19.15,25.39c-0.21,0-0.37,0.17-0.37,0.37s0.17,0.37,0.37,0.37s0.37-0.17,0.37-0.37
	S19.36,25.39,19.15,25.39z"/>
<path d="M19.15,30.8c-0.76,0-1.37-0.62-1.37-1.37s0.62-1.37,1.37-1.37s1.37,0.62,1.37,1.37S19.91,30.8,19.15,30.8z M19.15,29.05
	c-0.21,0-0.37,0.17-0.37,0.37s0.17,0.37,0.37,0.37s0.37-0.17,0.37-0.37S19.36,29.05,19.15,29.05z"/>
<path d="M20.55,15.14h-6.9c-0.28,0-0.5-0.22-0.5-0.5s0.22-0.5,0.5-0.5h6.9c0.28,0,0.5,0.22,0.5,0.5S20.83,15.14,20.55,15.14z"/>
<path d="M20.55,33.86h-6.9c-0.28,0-0.5-0.22-0.5-0.5s0.22-0.5,0.5-0.5h6.9c0.28,0,0.5,0.22,0.5,0.5S20.83,33.86,20.55,33.86z"/>
<path d="M3.8,30.42c-0.25,0-0.46-0.18-0.49-0.43c-0.04-0.27,0.15-0.53,0.42-0.57l6.98-1c0.27-0.04,0.53,0.15,0.57,0.42
	s-0.15,0.53-0.42,0.57l-6.98,1C3.85,30.42,3.82,30.42,3.8,30.42z"/>
<path d="M10.78,19.58c-0.02,0-0.05,0-0.07,0l-6.98-1c-0.27-0.04-0.46-0.29-0.42-0.57s0.29-0.46,0.57-0.42l6.98,1
	c0.27,0.04,0.46,0.29,0.42,0.57C11.23,19.4,11.02,19.58,10.78,19.58z"/>
<path d="M34.85,31.84c-0.15,0-0.3-0.03-0.43-0.1c-0.35-0.17-0.57-0.51-0.57-0.9v-4.37H23.51c-0.28,0-0.5-0.22-0.5-0.5
	s0.22-0.5,0.5-0.5h10.34c0.55,0,1,0.45,1,1v4.37l8.58-6.87l-8.58-7.72v4.29c0,0.55-0.45,1-1,1H23.51c-0.28,0-0.5-0.22-0.5-0.5
	s0.22-0.5,0.5-0.5h10.34v-4.29c0-0.4,0.23-0.75,0.59-0.91c0.37-0.16,0.78-0.1,1.08,0.17l8.58,7.72c0.22,0.2,0.34,0.48,0.33,0.77
	s-0.15,0.57-0.38,0.75l-8.58,6.87C35.29,31.77,35.07,31.84,34.85,31.84z"/>
</svg>
