<?xml version="1.0" encoding="utf-8"?>
<!-- Generator: Adobe Illustrator 25.2.3, SVG Export Plug-In . SVG Version: 6.00 Build 0)  -->
<svg version="1.1" id="Layer_1" xmlns="http://www.w3.org/2000/svg" xmlns:xlink="http://www.w3.org/1999/xlink" x="0px" y="0px"
	 viewBox="0 0 48 48" style="enable-background:new 0 0 48 48;" xml:space="preserve">
<style type="text/css">
	.st0{fill:none;}
	.st1{fill:none;stroke:#000000;stroke-linecap:round;stroke-linejoin:round;stroke-miterlimit:10;}
	.st2{fill:none;stroke:#000000;stroke-miterlimit:10;}
	.st3{fill:none;stroke:#000000;stroke-linecap:round;stroke-miterlimit:3;stroke-dasharray:3,2;}
	.st4{fill:none;stroke:#000000;stroke-linecap:round;stroke-miterlimit:10;}
</style>
<g>
	<path d="M31.12,24.69c0.28,0,0.5-0.22,0.5-0.5s-0.22-0.5-0.5-0.5h-5.66c-0.28,0-0.5,0.22-0.5,0.5s0.22,0.5,0.5,0.5H31.12z"/>
	<path d="M39.6,24.96c-0.89,0-1.61,0.72-1.61,1.61s0.72,1.61,1.61,1.61s1.61-0.72,1.61-1.61S40.48,24.96,39.6,24.96z M39.6,27.17
		c-0.33,0-0.61-0.27-0.61-0.61s0.27-0.61,0.61-0.61s0.61,0.27,0.61,0.61S39.93,27.17,39.6,27.17z"/>
	<path d="M20.33,24.96c-0.89,0-1.61,0.72-1.61,1.61s0.72,1.61,1.61,1.61s1.61-0.72,1.61-1.61S21.22,24.96,20.33,24.96z M20.33,27.17
		c-0.33,0-0.61-0.27-0.61-0.61s0.27-0.61,0.61-0.61c0.33,0,0.61,0.27,0.61,0.61S20.67,27.17,20.33,27.17z"/>
	<path d="M44.59,20.52c-0.06-1.29-0.93-2.35-2.11-2.73l-0.79-3.95c0,0,0,0,0,0c0-0.02,0.01-0.03,0.01-0.05v-1.14
		c0-1.07-0.87-1.95-1.95-1.95h-4.18V9.08c0-0.28-0.22-0.5-0.5-0.5H13.99c-0.28,0-0.5,0.22-0.5,0.5v8.02c0,0.28,0.22,0.5,0.5,0.5
		s0.5-0.22,0.5-0.5V9.58h20.09v1.64v2.58v5.35c0,0.28,0.22,0.5,0.5,0.5s0.5-0.22,0.5-0.5v-0.5h6c0.92,0,1.69,0.62,1.94,1.45h-1.47
		c-0.28,0-0.5,0.22-0.5,0.5v1.22c0,0.98,0.8,1.78,1.78,1.78h0.28v2.47h-0.67c-0.24-1.63-1.64-2.89-3.34-2.89s-3.1,1.26-3.34,2.89
		h-0.67v-4.22c0-0.28-0.22-0.5-0.5-0.5s-0.5,0.22-0.5,0.5v4.22H23.67c-0.24-1.63-1.64-2.89-3.34-2.89c-1.69,0-3.09,1.25-3.34,2.88
		h-2.5v-4.11h1.52c0.28,0,0.5-0.22,0.5-0.5s-0.22-0.5-0.5-0.5h-5.19c-0.28,0-0.5,0.22-0.5,0.5s0.22,0.5,0.5,0.5h2.67v4.61
		c0,0.28,0.22,0.5,0.5,0.5h3c0.24,1.64,1.64,2.91,3.34,2.91c1.7,0,3.1-1.26,3.34-2.89h11.41h1.17c0.24,1.63,1.64,2.89,3.34,2.89
		s3.1-1.26,3.34-2.89h1.17c0.28,0,0.5-0.22,0.5-0.5v-3.47v-2.43v-0.07C44.61,20.57,44.6,20.54,44.59,20.52z M39.76,11.71
		c0.52,0,0.95,0.43,0.95,0.95v0.64h-5.12v-1.58H39.76z M35.58,14.3h5.18l0.67,3.35h-5.85V14.3z M20.33,28.96
		c-1.32,0-2.39-1.07-2.39-2.39s1.07-2.39,2.39-2.39s2.39,1.07,2.39,2.39S21.65,28.96,20.33,28.96z M39.6,28.96
		c-1.32,0-2.39-1.07-2.39-2.38c0,0,0-0.01,0-0.01s0-0.01,0-0.01c0.01-1.31,1.08-2.38,2.39-2.38c1.32,0,2.39,1.07,2.39,2.39
		S40.92,28.96,39.6,28.96z M43.33,22.59c-0.43,0-0.78-0.35-0.78-0.78v-0.72h1.07v1.5H43.33z"/>
	<path d="M12.22,19.82h6.45c0.28,0,0.5-0.22,0.5-0.5s-0.22-0.5-0.5-0.5h-6.45c-0.28,0-0.5,0.22-0.5,0.5S11.94,19.82,12.22,19.82z"/>
	<path d="M33.04,33.07c0.18,0,0.34-0.1,0.43-0.25c0.08-0.13,0.09-0.28,0.04-0.42c-0.71-2.02-2.63-3.38-4.78-3.38
		c-2.05,0-3.88,1.23-4.66,3.08l-11.5,0.02c-0.87-1.72-2.61-2.81-4.52-2.81c-2.14,0-4.06,1.36-4.77,3.38
		C3.23,32.83,3.26,33,3.35,33.13c0.09,0.13,0.25,0.21,0.41,0.21l3.92,0.01l1.16,0.89l-1.19,1.13H3.76c-0.18,0-0.34,0.1-0.43,0.25
		c-0.08,0.13-0.09,0.28-0.04,0.42c0.71,2.02,2.63,3.38,4.78,3.38c2.05,0,3.88-1.23,4.66-3.08l11.38-0.02
		c0.86,1.67,2.72,2.81,4.63,2.81c2.14,0,4.06-1.36,4.77-3.38c0.05-0.15,0.03-0.32-0.06-0.45c-0.09-0.13-0.25-0.21-0.41-0.21
		l-3.92-0.01l-1.16-0.89l1.19-1.13H33.04z M28.6,32.21l-1.77,1.67c-0.11,0.1-0.16,0.24-0.16,0.39c0.01,0.15,0.08,0.28,0.2,0.37
		l1.76,1.35c0.09,0.07,0.19,0.1,0.3,0.1l3.32,0c-0.71,1.25-2.05,2.04-3.52,2.04c-1.64,0-3.22-1.03-3.85-2.51
		c-0.08-0.18-0.26-0.3-0.46-0.3h0l-12.05,0.02c-0.21,0-0.41,0.14-0.47,0.34c-0.55,1.64-2.1,2.74-3.84,2.74
		c-1.48,0-2.82-0.8-3.53-2.05h3.32c0.13,0,0.25-0.05,0.34-0.14l1.76-1.67c0.11-0.1,0.16-0.24,0.16-0.39
		c-0.01-0.15-0.08-0.28-0.2-0.37l-1.76-1.35c-0.09-0.07-0.19-0.1-0.3-0.1l-3.32,0c0.71-1.25,2.05-2.04,3.52-2.04
		c1.62,0,3.09,0.98,3.74,2.51c0.08,0.18,0.26,0.3,0.46,0.3h0l12.16-0.02c0.21,0,0.41-0.14,0.47-0.34c0.55-1.64,2.1-2.74,3.84-2.74
		c1.48,0,2.82,0.8,3.53,2.05h-3.32C28.82,32.07,28.7,32.12,28.6,32.21z"/>
</g>
</svg>
