<?xml version="1.0" encoding="utf-8"?>
<!-- Generator: Adobe Illustrator 25.2.3, SVG Export Plug-In . SVG Version: 6.00 Build 0)  -->
<svg version="1.1" id="Layer_1" xmlns="http://www.w3.org/2000/svg" xmlns:xlink="http://www.w3.org/1999/xlink" x="0px" y="0px"
	 viewBox="0 0 48 48" style="enable-background:new 0 0 48 48;" xml:space="preserve">
<g>
	<path d="M43.22,36.62l-6.01-13.8c-0.09-0.2-0.1-0.43-0.04-0.65l0.46-1.62c0.21-0.75-0.02-1.53-0.62-2.05l-6.78-5.79
		c-0.78-0.66-1.92-0.62-2.66,0.08l-0.81,0.78c-0.35,0.34-0.91,0.36-1.29,0.06l-1.9-1.52c-0.02-0.02-0.03-0.05-0.05-0.07
		c-0.04-0.04-0.09-0.07-0.15-0.09l-4.85-3.86c-0.19-0.15-0.42-0.27-0.7-0.36L8,4.96c-1.14-0.31-2.3,0.33-2.62,1.48L4.85,8.33
		c-0.32,1.14,0.33,2.3,1.48,2.62l9.8,2.75c0.14,0.04,0.26,0.1,0.37,0.19l3.53,2.89c0.17,0.14,0.3,0.35,0.34,0.57l4.71,25
		c0.12,0.6,0.49,1.1,1.02,1.38c0.29,0.15,0.6,0.23,0.92,0.23c0.27,0,0.54-0.05,0.79-0.17l8.22-3.57c0.35-0.15,0.75-0.09,1.03,0.15
		c0.6,0.5,1.43,0.61,2.14,0.28l3.05-1.46C43.23,38.73,43.65,37.6,43.22,36.62z M16.4,12.74L6.6,9.99C5.99,9.81,5.64,9.2,5.81,8.59
		l0.53-1.89c0.15-0.5,0.59-0.83,1.09-0.83c0.1,0,0.2,0.01,0.31,0.04l9.79,2.77c0.14,0.04,0.26,0.11,0.36,0.18l4.54,3.62l-2.58,2.85
		l-2.72-2.23C16.92,12.95,16.68,12.82,16.4,12.74z M41.82,38.3l-3.05,1.46c-0.36,0.17-0.76,0.11-1.07-0.14
		c-0.58-0.48-1.37-0.6-2.07-0.31l-8.23,3.57c-0.27,0.12-0.58,0.11-0.84-0.03c-0.27-0.14-0.45-0.39-0.51-0.68l-4.71-25.01
		c-0.09-0.46-0.34-0.87-0.69-1.16l-0.03-0.03l2.59-2.86l1.63,1.3c0.78,0.62,1.9,0.56,2.61-0.12l0.81-0.78
		c0.36-0.35,0.93-0.37,1.32-0.04l6.78,5.79c0.29,0.25,0.41,0.64,0.3,1.02L36.2,21.9c-0.12,0.45-0.09,0.92,0.09,1.32l6.01,13.8
		c0,0,0,0,0,0C42.51,37.5,42.3,38.07,41.82,38.3z"/>
	<path d="M25.43,25.82c0.27-0.06,0.44-0.33,0.37-0.6l-1.99-8.5c-0.06-0.27-0.33-0.44-0.6-0.37c-0.27,0.06-0.44,0.33-0.37,0.6
		l1.99,8.5c0.05,0.23,0.26,0.39,0.49,0.39C25.36,25.83,25.4,25.83,25.43,25.82z"/>
	<path d="M33.07,27.81c-0.32-0.92-0.99-1.66-1.87-2.08c-0.89-0.42-1.88-0.47-2.81-0.14l-0.86,0.31c-0.28,0.1-0.53,0.23-0.77,0.39
		c-0.08,0.03-0.15,0.07-0.21,0.14c-0.01,0.01-0.01,0.02-0.02,0.04c-0.45,0.35-0.83,0.78-1.08,1.31c-0.42,0.88-0.47,1.88-0.14,2.81
		l2.99,8.41c0.14,0.41,0.53,0.66,0.94,0.66c0.11,0,0.22-0.02,0.33-0.06l5.88-2.09c0.25-0.09,0.46-0.28,0.57-0.52
		c0.11-0.25,0.12-0.52,0.03-0.76L33.07,27.81z M29.24,38.65l-2.99-8.41c-0.24-0.67-0.2-1.4,0.1-2.04c0.14-0.3,0.34-0.56,0.58-0.79
		l1.44,1.25c0.55,0.48,0.97,1.11,1.2,1.82l2.35,7.21L29.24,38.65z M32.86,37.36l-2.34-7.19c-0.29-0.88-0.81-1.66-1.5-2.26
		l-1.21-1.05c0.02-0.01,0.03-0.02,0.05-0.02l0.86-0.31c0.29-0.1,0.6-0.16,0.9-0.16c0.39,0,0.78,0.09,1.14,0.26
		c0.64,0.31,1.12,0.84,1.36,1.52l2.99,8.41L32.86,37.36z"/>
	<path d="M9.9,16.07c-0.21-0.32-0.56-0.51-0.94-0.51c0,0,0,0,0,0c-0.38,0-0.72,0.19-0.92,0.5c-1.5,2.3-3.29,5.33-3.29,6.71
		c0,1.4,0.67,2.72,1.8,3.54c0.76,0.55,1.65,0.84,2.58,0.84c0.48,0,0.97-0.08,1.45-0.23c1.37-0.44,2.45-1.66,2.82-3.17
		c0.26-1.08,0.07-2.22-0.53-3.13L9.9,16.07z M12.41,23.51c-0.29,1.18-1.12,2.12-2.16,2.46c-1.1,0.35-2.23,0.18-3.12-0.46
		c-0.87-0.63-1.39-1.66-1.39-2.73c0-0.87,1.17-3.17,3.22-6.21c0.02,0,0.07,0.01,0.1,0.05c0,0,0,0,0,0l2.96,4.55
		C12.47,21.85,12.61,22.7,12.41,23.51z"/>
</g>
</svg>
