<?xml version="1.0" encoding="utf-8"?>
<!-- Generator: Adobe Illustrator 25.2.3, SVG Export Plug-In . SVG Version: 6.00 Build 0)  -->
<svg version="1.1" id="Layer_1" xmlns="http://www.w3.org/2000/svg" xmlns:xlink="http://www.w3.org/1999/xlink" x="0px" y="0px"
	 viewBox="0 0 48 48" style="enable-background:new 0 0 48 48;" xml:space="preserve">
<g>
	<path d="M24,4.54C13.27,4.54,4.54,13.27,4.54,24S13.27,43.46,24,43.46S43.46,34.73,43.46,24S34.73,4.54,24,4.54z M24,42.46
		C13.82,42.46,5.54,34.18,5.54,24S13.82,5.54,24,5.54S42.46,13.82,42.46,24S34.18,42.46,24,42.46z"/>
	<path d="M24,7.37C14.83,7.37,7.37,14.83,7.37,24S14.83,40.63,24,40.63S40.63,33.17,40.63,24S33.17,7.37,24,7.37z M24,39.63
		c-8.62,0-15.63-7.01-15.63-15.63S15.38,8.37,24,8.37S39.63,15.38,39.63,24S32.62,39.63,24,39.63z"/>
	<path d="M24.29,11.25c-6.83,0-12.38,5.55-12.38,12.38c0,1.67,0.33,3.29,0.97,4.81c0.11,0.25,0.4,0.37,0.65,0.27
		c0.25-0.11,0.37-0.4,0.27-0.66c-0.59-1.4-0.89-2.89-0.89-4.43c0-6.27,5.1-11.38,11.38-11.38c6.27,0,11.38,5.1,11.38,11.38
		c0,1.72-0.38,3.38-1.12,4.92c-0.12,0.25-0.02,0.55,0.23,0.67c0.07,0.03,0.14,0.05,0.22,0.05c0.19,0,0.36-0.1,0.45-0.28
		c0.81-1.68,1.22-3.48,1.22-5.36C36.67,16.8,31.12,11.25,24.29,11.25z"/>
	<path d="M30.28,17l-5.04,5.09c-0.36-0.23-0.79-0.37-1.25-0.37c-1.26,0-2.29,1.03-2.29,2.29s1.03,2.29,2.29,2.29
		s2.29-1.03,2.29-2.29c0-0.44-0.13-0.85-0.35-1.2L31,17.7c0.19-0.2,0.19-0.51,0-0.71C30.8,16.8,30.48,16.8,30.28,17z M24,25.29
		c-0.71,0-1.29-0.58-1.29-1.29c0-0.71,0.58-1.29,1.29-1.29c0.35,0,0.68,0.14,0.91,0.38c0.01,0.01,0.01,0.02,0.02,0.03c0,0,0,0,0,0
		c0.22,0.23,0.36,0.54,0.36,0.88C25.29,24.71,24.71,25.29,24,25.29z"/>
</g>
</svg>
