<?xml version="1.0" encoding="utf-8"?>
<!-- Generator: Adobe Illustrator 25.2.3, SVG Export Plug-In . SVG Version: 6.00 Build 0)  -->
<svg version="1.1" id="Layer_1" xmlns="http://www.w3.org/2000/svg" xmlns:xlink="http://www.w3.org/1999/xlink" x="0px" y="0px"
	 viewBox="0 0 48 48" style="enable-background:new 0 0 48 48;" xml:space="preserve">
<g>
	<path d="M17.37,32.48c1.98-1.09,2.06-3.37,1.83-4.42c-0.01-0.03-0.02-0.07-0.03-0.1l-3.02-6.6l-0.3-0.66l0,0l-0.12-0.27
		c-0.07-0.16-0.23-0.27-0.41-0.29L8.35,19.5L4.8,17.17c-0.23-0.15-0.54-0.09-0.69,0.14c-0.15,0.23-0.09,0.54,0.14,0.69l3.65,2.4
		c0.07,0.04,0.15,0.07,0.23,0.08l6.8,0.62l0.03,0.07c-0.3,0.23-0.82,0.64-1.76,1.4c-0.43,0.34-0.53,0.95-0.23,1.43l0.79,1.19
		c0.17,0.23,0.43,0.38,0.73,0.4l2.51,0.07l1.21,2.65c0.06,0.34,0.35,2.3-1.29,3.25l-5.41,1.33c0.14-1.17,0.19-3.42-1.15-5.27
		c-1.18-1.63-3.13-2.55-5.82-2.75c-0.27-0.02-0.51,0.19-0.53,0.46c-0.02,0.28,0.19,0.51,0.46,0.54c2.38,0.17,4.08,0.96,5.08,2.33
		c1.59,2.19,0.86,5.2,0.85,5.23c-0.04,0.17,0.01,0.35,0.13,0.47c0.1,0.1,0.22,0.15,0.35,0.15c0.04,0,0.08,0,0.12-0.01l6.22-1.53
		C17.29,32.51,17.33,32.5,17.37,32.48z M14.6,24.63l-0.76-1.26c0.48-0.39,1.13-0.91,1.56-1.25l1.16,2.55L14.6,24.63z"/>
	<path d="M4.5,27.07c-0.28,0-0.5,0.22-0.5,0.5s0.22,0.5,0.5,0.5c2.12,0,3.84,1.72,3.84,3.84c0,2.11-1.72,3.83-3.84,3.83
		c-0.28,0-0.5,0.22-0.5,0.5s0.22,0.5,0.5,0.5c2.67,0,4.84-2.17,4.84-4.83C9.34,29.24,7.17,27.07,4.5,27.07z"/>
	<path d="M18.87,32.4h-0.79c-0.28,0-0.5,0.22-0.5,0.5s0.22,0.5,0.5,0.5h0.29v0.72h-3.38c-0.28,0-0.5,0.22-0.5,0.5s0.22,0.5,0.5,0.5
		h3.88c0.28,0,0.5-0.22,0.5-0.5V32.9C19.37,32.62,19.15,32.4,18.87,32.4z"/>
	<path d="M38.04,25.19c-0.28,0-0.5,0.22-0.5,0.5c0,0.63-0.84,1.16-1.83,1.16c-0.87,0-1.55-0.41-1.77-0.81
		c-0.13-0.23-0.41-0.32-0.64-0.21c-0.24,0.11-0.35,0.38-0.26,0.63c0.06,0.16,0.09,0.35,0.09,0.54c0,0.93-0.76,1.69-1.69,1.69
		c-0.36,0-0.69-0.12-0.97-0.32c0,0,0,0,0,0c-0.18-0.13-0.35-0.29-0.48-0.49c-0.15-0.24-0.45-0.3-0.69-0.16
		c-0.23,0.15-0.31,0.45-0.16,0.69c0.12,0.19,0.25,0.35,0.41,0.5c-0.4,0.85-1.26,1.42-2.21,1.42c-0.6,0-1.17-0.21-1.59-0.6
		c-0.21-0.18-0.52-0.17-0.71,0.04c-0.19,0.21-0.17,0.52,0.04,0.71c0.47,0.43,1.06,0.7,1.69,0.81c-0.2,0.75-0.88,1.3-1.68,1.3
		c-0.16,0-0.51-0.09-0.72-0.16c-0.25-0.08-0.52,0.05-0.62,0.3c-0.24,0.62-0.82,1.02-1.47,1.02c-0.87,0-1.57-0.7-1.57-1.57
		c0-0.62,0.37-1.16,0.89-1.41c-0.01,0.09-0.02,0.18-0.02,0.27c0,0.22,0.02,0.44,0.07,0.64c0.05,0.23,0.26,0.39,0.49,0.39
		c0.04,0,0.08,0,0.12-0.01c0.27-0.06,0.44-0.33,0.37-0.6c-0.03-0.13-0.05-0.27-0.05-0.42c0-0.96,0.78-1.75,1.77-1.75
		c0.16,0,0.31-0.08,0.41-0.21c0.09-0.13,0.12-0.3,0.07-0.45c-0.09-0.27-0.13-0.54-0.13-0.8c0-1.33,1.07-2.42,2.4-2.44
		c0.01,0,0.02,0.01,0.03,0.01c0.03,0,0.06-0.02,0.09-0.03c0.05-0.01,0.1-0.02,0.14-0.04c0.02-0.01,0.04-0.03,0.06-0.04
		c0.07-0.05,0.12-0.1,0.16-0.18c0,0,0,0,0,0c0,0,0,0,0,0c0.03-0.07,0.06-0.14,0.06-0.22c0-0.22-0.14-0.4-0.33-0.47
		c-0.53-0.27-0.87-0.8-0.87-1.38c0-0.85,0.7-1.55,1.55-1.55c0.28,0,0.5-0.22,0.5-0.5s-0.22-0.5-0.5-0.5c-0.68,0-1.3,0.27-1.76,0.71
		c-0.5-0.54-0.81-1.24-0.81-1.98c0-1.6,1.31-2.91,2.91-2.91c0.28,0,0.5-0.22,0.5-0.5s-0.22-0.5-0.5-0.5c-2.16,0-3.91,1.75-3.91,3.91
		c0,1.06,0.47,2.08,1.23,2.81c-0.13,0.31-0.21,0.65-0.21,1.01c0,0.58,0.22,1.11,0.57,1.56c-1.34,0.47-2.31,1.73-2.31,3.23
		c0,0.17,0.01,0.35,0.04,0.53c-0.75,0.17-1.38,0.64-1.76,1.29c-1.27,0.16-2.26,1.23-2.26,2.54c0,1.42,1.15,2.57,2.57,2.57
		c0.92,0,1.74-0.48,2.21-1.25c1.63,0.39,3.05-0.72,3.3-2.2c1.11-0.15,2.1-0.84,2.62-1.84c0.33,0.14,0.68,0.23,1.05,0.23
		c1.32,0,2.42-0.96,2.65-2.22c0.47,0.25,1.04,0.39,1.63,0.39c1.59,0,2.83-0.95,2.83-2.16C38.54,25.41,38.32,25.19,38.04,25.19z"/>
	<path d="M40.24,16.24c-0.28,0-0.5,0.22-0.5,0.5s0.22,0.5,0.5,0.5c1.52,0,2.76,1.24,2.76,2.76s-1.24,2.76-2.76,2.76
		c-0.28,0-0.5,0.22-0.5,0.5s0.22,0.5,0.5,0.5c2.07,0,3.76-1.69,3.76-3.76S42.31,16.24,40.24,16.24z"/>
	<path d="M30.9,13.82c0.11-0.15,0.3-0.25,0.5-0.25c0.35,0,0.63,0.28,0.63,0.63c0,0.28,0.22,0.5,0.5,0.5s0.5-0.22,0.5-0.5
		c0-1.07,1.11-1.94,2.47-1.94c1.02,0,1.92,0.48,2.29,1.22c0.13,0.25,0.43,0.34,0.67,0.22c0.25-0.13,0.34-0.43,0.22-0.67
		c-0.55-1.07-1.8-1.76-3.19-1.76c-1.37,0-2.54,0.68-3.11,1.66c-0.28-0.21-0.62-0.35-0.99-0.35c-0.52,0-1.02,0.25-1.32,0.67
		c-0.16,0.22-0.11,0.54,0.12,0.7C30.42,14.1,30.73,14.05,30.9,13.82z"/>
	<path d="M34.8,19.91l7.72-7.6c0.2-0.19,0.2-0.51,0.01-0.71c-0.19-0.2-0.51-0.2-0.71,0l-7.73,7.61l-7.56-7.46
		c-0.2-0.19-0.51-0.19-0.71,0c-0.19,0.2-0.19,0.51,0,0.71l7.55,7.45l-7.89,7.77c-0.2,0.19-0.2,0.51-0.01,0.71
		c0.1,0.1,0.23,0.15,0.36,0.15c0.13,0,0.25-0.05,0.35-0.14l7.9-7.78l7.73,7.62c0.1,0.1,0.22,0.14,0.35,0.14
		c0.13,0,0.26-0.05,0.36-0.15c0.19-0.2,0.19-0.51,0-0.71L34.8,19.91z"/>
</g>
</svg>
