<?xml version="1.0" encoding="utf-8"?>
<!-- Generator: Adobe Illustrator 25.2.3, SVG Export Plug-In . SVG Version: 6.00 Build 0)  -->
<svg version="1.1" id="Layer_1" xmlns="http://www.w3.org/2000/svg" xmlns:xlink="http://www.w3.org/1999/xlink" x="0px" y="0px"
	 viewBox="0 0 48 48" style="enable-background:new 0 0 48 48;" xml:space="preserve">
<path d="M31.06,23.61h-3.02V10.42c0-1.26-0.85-2.31-2-2.65V4.7c0-0.77-0.62-1.39-1.39-1.39h-1.29c-0.77,0-1.39,0.62-1.39,1.39v3.04
	c-1.2,0.3-2.1,1.38-2.1,2.68v13.19h-2.93c-0.28,0-0.5,0.22-0.5,0.5v4.35c0,0.28,0.22,0.5,0.5,0.5h1.57v2.52
	c0,0.83,0.66,1.51,1.49,1.54v6.34c0,1.19,0.97,2.16,2.16,2.16h0.52h0.72v0.89c0,0.28,0.22,0.5,0.5,0.5c0.28,0,0.5-0.22,0.5-0.5
	v-0.89h1.28v1.34c0,0.45-0.37,0.82-0.82,0.82h-1.38c-0.28,0-0.5,0.22-0.5,0.5s0.22,0.5,0.5,0.5h1.38c1,0,1.82-0.82,1.82-1.82v-1.45
	c0-0.02-0.01-0.04-0.01-0.06c0.78-0.33,1.33-1.09,1.34-1.99v-6.34c0.82-0.04,1.47-0.71,1.47-1.54v-2.52h1.58
	c0.28,0,0.5-0.22,0.5-0.5v-4.35C31.56,23.83,31.34,23.61,31.06,23.61z M23.36,4.31h1.29c0.21,0,0.39,0.17,0.39,0.39v2.95h-2.07V4.7
	C22.97,4.48,23.15,4.31,23.36,4.31z M20.87,10.42c0-0.98,0.79-1.77,1.77-1.77h2.63c0.98,0,1.77,0.79,1.77,1.77v13.19h-6.17V10.42z
	 M27.01,39.36c-0.01,0.65-0.52,1.16-1.17,1.16h-0.05h-3.11h-0.52C21.52,40.52,21,40,21,39.36v-6.32h6.01V39.36z M28.48,31.48
	c0,0.3-0.25,0.55-0.55,0.55h-7.87c-0.3,0-0.55-0.25-0.55-0.55v-2.52h8.97V31.48z M30.56,27.96h-1.53c-0.02,0-0.03-0.01-0.05-0.01
	h-9.97c-0.02,0-0.03,0.01-0.05,0.01h-1.52v-3.35h2.93h7.17h3.02V27.96z"/>
</svg>
