<?xml version="1.0" encoding="utf-8"?>
<!-- Generator: Adobe Illustrator 25.2.3, SVG Export Plug-In . SVG Version: 6.00 Build 0)  -->
<svg version="1.1" id="Layer_1" xmlns="http://www.w3.org/2000/svg" xmlns:xlink="http://www.w3.org/1999/xlink" x="0px" y="0px"
	 viewBox="0 0 48 48" style="enable-background:new 0 0 48 48;" xml:space="preserve">
<path d="M24.07,38.36c-7.92,0-14.36-6.44-14.36-14.36S16.15,9.64,24.07,9.64c7.92,0,14.36,6.44,14.36,14.36S31.99,38.36,24.07,38.36
	z M24.07,10.64c-7.37,0-13.36,5.99-13.36,13.36c0,7.37,5.99,13.36,13.36,13.36c7.37,0,13.36-5.99,13.36-13.36
	C37.43,16.63,31.44,10.64,24.07,10.64z"/>
<path d="M39.77,37.44c-0.1,0-0.2-0.03-0.29-0.09c-0.23-0.16-0.28-0.47-0.12-0.7c2.62-3.72,4.01-8.1,4.01-12.65
	c0-4.28-1.23-8.42-3.56-11.98c-0.15-0.23-0.09-0.54,0.14-0.69c0.23-0.15,0.54-0.09,0.69,0.14c2.43,3.72,3.72,8.05,3.72,12.52
	c0,4.76-1.45,9.34-4.19,13.23C40.08,37.37,39.93,37.44,39.77,37.44z"/>
<path d="M8.23,37.44c-0.16,0-0.31-0.07-0.41-0.21C5.08,33.34,3.63,28.76,3.63,24c0-4.47,1.29-8.8,3.72-12.52
	c0.15-0.23,0.46-0.29,0.69-0.14c0.23,0.15,0.3,0.46,0.14,0.69C5.86,15.58,4.63,19.72,4.63,24c0,4.56,1.39,8.93,4.01,12.65
	c0.16,0.23,0.1,0.54-0.12,0.7C8.43,37.41,8.33,37.44,8.23,37.44z"/>
<path d="M26.87,18.72v7.11c0,0.67,0.02,1.39,0.05,2.13l-6.17-9.24h-0.94v10.96h0.97v-7.07c0-0.51-0.02-1.26-0.07-2.21l6.19,9.28
	h0.95V18.72H26.87z"/>
</svg>
