<?xml version="1.0" encoding="utf-8"?>
<!-- Generator: Adobe Illustrator 25.2.3, SVG Export Plug-In . SVG Version: 6.00 Build 0)  -->
<svg version="1.1" id="Layer_1" xmlns="http://www.w3.org/2000/svg" xmlns:xlink="http://www.w3.org/1999/xlink" x="0px" y="0px"
	 viewBox="0 0 48 48" style="enable-background:new 0 0 48 48;" xml:space="preserve">
<g>
	<path d="M24.64,23.47c0-1.14-0.93-2.07-2.07-2.07s-2.07,0.93-2.07,2.07c0,1.14,0.93,2.07,2.07,2.07S24.64,24.61,24.64,23.47z
		 M22.57,24.54c-0.59,0-1.07-0.48-1.07-1.07s0.48-1.07,1.07-1.07s1.07,0.48,1.07,1.07S23.16,24.54,22.57,24.54z"/>
	<path d="M38.09,31.02c0.01-0.01,0.02-0.02,0.02-0.03l0.59-1.15c0.38-0.75,0.46-1.6,0.22-2.4l-0.76-2.59
		c-0.03-0.09-0.05-0.16-0.86-1.27C37.22,15.47,30.54,8.9,22.34,8.9c-8.17,0-14.82,6.6-14.92,14.74c-0.14,0.17-0.38,0.46-0.57,0.7
		c-0.21,0.26-0.37,0.56-0.47,0.89l-0.65,2.22c-0.24,0.8-0.16,1.64,0.22,2.38l0.59,1.16c0.01,0.01,0.02,0.02,0.03,0.04l-1.52,3.67
		c-0.11,0.25,0.02,0.55,0.27,0.65c0.06,0.03,0.13,0.04,0.19,0.04c0.2,0,0.38-0.12,0.46-0.31l1.41-3.41
		c0.25,0.12,0.56,0.25,0.95,0.41c0.49,0.21,1.1,0.46,1.85,0.8c0.02,0.01,0.04,0.01,0.06,0.02L8.03,44.28
		c-0.05,0.27,0.12,0.53,0.4,0.59c0.03,0.01,0.06,0.01,0.1,0.01c0.23,0,0.44-0.17,0.49-0.4l2.12-10.89
		c2.86,3.24,6.97,5.16,11.22,5.16c4.07,0,8.13-1.92,11.05-5.17l2.26,10.9c0.05,0.24,0.26,0.4,0.49,0.4c0.03,0,0.07,0,0.1-0.01
		c0.27-0.06,0.44-0.32,0.39-0.59l-2.35-11.34c0.12-0.03,0.24-0.06,0.36-0.12c0.9-0.43,1.62-0.74,2.15-0.96
		c0.18-0.08,0.34-0.14,0.48-0.2l1.42,3.42c0.08,0.19,0.27,0.31,0.46,0.31c0.06,0,0.13-0.01,0.19-0.04c0.25-0.11,0.38-0.4,0.27-0.65
		L38.09,31.02z M22.34,9.9c7.61,0,13.81,6.07,13.97,13.58l-1.97,1.14c0.02-0.27,0.03-0.55,0.03-0.79c0-6.63-5.4-12.03-12.03-12.03
		c-6.63,0-12.03,5.4-12.03,12.03c0,0.26,0.02,0.53,0.05,0.81c-0.22-0.12-0.47-0.26-0.79-0.44c-0.41-0.22-0.88-0.49-1.15-0.64
		C8.56,16,14.75,9.9,22.34,9.9z M31.56,25.61c-0.39,0.19-0.63,0.58-0.63,1.01v2.97c0,0.25,0.09,0.51,0.25,0.7l0.04,0.05
		c-1.57,2.13-3.84,3.62-6.37,4.21v-6.46c0-1.41,1.14-2.55,2.55-2.55h4.39l-0.14,0.04C31.62,25.58,31.59,25.6,31.56,25.61z
		 M22.34,34.85c-0.54,0-1.07-0.05-1.6-0.13v-6.09c0-1.96-1.59-3.55-3.55-3.55h-5.77c-0.06-0.41-0.11-0.87-0.11-1.25
		c0-0.66,0.07-1.31,0.18-1.93l6.75-1.47c2.64-0.58,5.31-0.58,7.95,0l7.01,1.53c0.11,0.61,0.17,1.24,0.17,1.88
		c0,0.22-0.01,0.46-0.03,0.71H27.4c-1.96,0-3.55,1.59-3.55,3.55v6.65C23.35,34.81,22.85,34.85,22.34,34.85z M13.45,30.34l0.03-0.03
		c0.17-0.21,0.26-0.46,0.26-0.72v-2.97c0-0.19-0.06-0.38-0.15-0.54h3.59c1.41,0,2.55,1.14,2.55,2.55v5.9
		C17.26,33.92,15.03,32.45,13.45,30.34z M11.74,20.82c1.32-4.62,5.56-8.02,10.6-8.02c5.06,0,9.32,3.43,10.62,8.08l-6.56-1.43
		c-2.78-0.61-5.6-0.61-8.37,0L11.74,20.82z M8.73,31.15c-0.53-0.22-0.92-0.38-1.21-0.54c-0.02-0.01-0.06-0.03-0.09-0.09l-0.59-1.15
		c-0.26-0.51-0.32-1.09-0.15-1.64l0.65-2.21c0.06-0.2,0.16-0.4,0.29-0.56c0.12-0.16,0.27-0.33,0.4-0.49
		c0.24,0.14,0.58,0.33,1.06,0.59c0.62,0.35,1.48,0.82,1.6,0.9l0,0c0.06,0.04,0.12,0.07,0.19,0.09c0,0,0.01,0,0.01,0.01l1.81,0.46
		c0.03,0.02,0.04,0.05,0.04,0.09v2.97l-1.77,2.29c-0.08,0.11-0.24,0.14-0.36,0.08C9.85,31.62,9.23,31.36,8.73,31.15z M22.35,37.75
		c-4.09,0-8.04-1.91-10.72-5.12c0.04-0.04,0.09-0.08,0.13-0.13l1.06-1.35c1.82,2.32,4.38,3.89,7.2,4.45
		c0.07,0.04,0.15,0.06,0.23,0.06c0.02,0,0.03-0.01,0.05-0.01c0.67,0.12,1.36,0.2,2.05,0.2c0.66,0,1.31-0.07,1.96-0.18
		c0.02,0,0.03,0.01,0.05,0.01c0.08,0,0.16-0.03,0.23-0.06c2.86-0.54,5.45-2.11,7.26-4.45l0.89,1.19c0.06,0.08,0.13,0.14,0.2,0.21
		C30.18,35.81,26.27,37.75,22.35,37.75z M36.41,30.94c-0.54,0.23-1.28,0.54-2.2,0.98c-0.23,0.11-0.53,0.05-0.68-0.16l-1.55-2.07
		c0,0-0.05-0.1-0.05-0.1v-2.97c0-0.03,0-0.06,0.04-0.09l1.3-0.33c0.4-0.1,0.77-0.25,1.1-0.44c0,0,0,0,0,0l2.3-1.33
		c0.27,0.38,0.51,0.71,0.53,0.71l0.76,2.59c0.16,0.55,0.11,1.14-0.16,1.66l-0.59,1.15c-0.01,0.03-0.03,0.06-0.1,0.09
		C36.96,30.7,36.72,30.8,36.41,30.94z"/>
	<path d="M42.74,8.68c-0.19-0.12-0.44-0.09-0.6,0.06c-0.55,0.51-1.27,0.8-2.03,0.8c-1.64,0-2.98-1.34-2.98-2.98
		c0-1.04,0.53-1.98,1.43-2.52c0.19-0.12,0.28-0.35,0.22-0.56s-0.26-0.37-0.48-0.37c-2.65,0-4.81,2.16-4.81,4.81
		c0,2.67,2.15,4.83,4.85,4.81c2.11,0,4.01-1.42,4.62-3.48C43.02,9.04,42.94,8.8,42.74,8.68z M38.3,11.73c-2.1,0-3.81-1.71-3.81-3.81
		c0-1.55,0.93-2.88,2.25-3.48c-0.4,0.62-0.61,1.35-0.61,2.12c0,2.19,1.79,3.98,3.98,3.98c0.39,0,0.76-0.05,1.12-0.16
		C40.51,11.23,39.48,11.76,38.3,11.73z"/>
</g>
</svg>
