<?xml version="1.0" encoding="utf-8"?>
<!-- Generator: Adobe Illustrator 25.2.3, SVG Export Plug-In . SVG Version: 6.00 Build 0)  -->
<svg version="1.1" id="Layer_1" xmlns="http://www.w3.org/2000/svg" xmlns:xlink="http://www.w3.org/1999/xlink" x="0px" y="0px"
	 viewBox="0 0 48 48" style="enable-background:new 0 0 48 48;" xml:space="preserve">
<g>
	<path d="M40.7,5.87H7.3C6.03,5.87,5,6.9,5,8.17v32.02c0,1.08,0.85,1.94,1.94,1.95h34.12c1.07,0,1.94-0.87,1.94-1.94V8.17
		C43,6.9,41.97,5.87,40.7,5.87z M7.3,6.87h33.4c0.72,0,1.3,0.58,1.3,1.3v2.15H26.08h-4.16H6V8.17C6,7.45,6.58,6.87,7.3,6.87z
		 M26.51,11.75c0,0.24-0.19,0.43-0.43,0.43h-4.16c-0.23,0-0.43-0.2-0.43-0.43s0.2-0.43,0.43-0.43h4.16
		C26.31,11.32,26.51,11.52,26.51,11.75z M41.06,41.14H6.95C6.42,41.13,6,40.72,6,40.19V11.32h14.56c-0.04,0.14-0.07,0.28-0.07,0.43
		c0,0.59,0.36,1.1,0.88,1.32L20,14.22c-0.21,0.18-0.24,0.49-0.06,0.7c0.1,0.12,0.24,0.18,0.38,0.18c0.11,0,0.23-0.04,0.32-0.12
		l2.17-1.81h0.37v2.5c0,0.28,0.22,0.5,0.5,0.5s0.5-0.22,0.5-0.5v-2.5h0.34l1.97,1.97c0.1,0.1,0.23,0.15,0.35,0.15
		s0.26-0.05,0.35-0.15c0.2-0.2,0.2-0.51,0-0.71l-1.27-1.27h0.15c0.79,0,1.43-0.64,1.43-1.43c0-0.15-0.03-0.29-0.07-0.43H42V40.2
		C42,40.72,41.58,41.14,41.06,41.14z"/>
	<path d="M11.84,30.79h6.42c0.28,0,0.5-0.22,0.5-0.5s-0.22-0.5-0.5-0.5h-6.42c-0.28,0-0.5,0.22-0.5,0.5S11.56,30.79,11.84,30.79z"/>
	<path d="M37.71,27.9l-0.48-2h0.08c0.28,0,0.5-0.22,0.5-0.5c0-1.4-1.13-2.53-2.53-2.53H32.3c-0.16-0.6-0.7-1.05-1.35-1.05H14.29
		c-0.77,0-1.4,0.63-1.4,1.4v5.56c0,0.28,0.22,0.5,0.5,0.5s0.5-0.22,0.5-0.5v-5.56c0-0.22,0.18-0.4,0.4-0.4h16.66
		c0.22,0,0.4,0.18,0.4,0.4v0.1c0,0.02-0.01,0.03-0.01,0.05v2.03c0,0.02,0.01,0.03,0.01,0.05v2.93v0.69c0,0.28,0.22,0.5,0.5,0.5
		s0.5-0.22,0.5-0.5v-0.19h4.96h0.18c0.71,0,1.3,0.49,1.46,1.15H37.7c-0.28,0-0.5,0.22-0.5,0.5v0.96c0,0.78,0.64,1.42,1.42,1.42H39
		v1.82h-0.36c-0.24-1.37-1.44-2.42-2.88-2.42c-1.44,0-2.64,1.05-2.88,2.43h-0.53v-1.93v-0.34c0-0.28-0.22-0.5-0.5-0.5
		s-0.5,0.22-0.5,0.5v0.34v1.93h-9.5c-0.24-1.38-1.44-2.43-2.88-2.43c-1.44,0-2.64,1.05-2.88,2.43h-1.8c-0.22,0-0.4-0.18-0.4-0.4
		v-1.38h1.62c0.28,0,0.5-0.22,0.5-0.5s-0.22-0.5-0.5-0.5h-4.24c-0.28,0-0.5,0.22-0.5,0.5s0.22,0.5,0.5,0.5h1.62v1.38
		c0,0.77,0.63,1.4,1.4,1.4h1.8c0.24,1.38,1.44,2.43,2.88,2.43c1.44,0,2.64-1.05,2.88-2.43h10h1.03c0.24,1.38,1.44,2.43,2.88,2.43
		c1.45,0,2.65-1.06,2.88-2.44h0.86c0.28,0,0.5-0.22,0.5-0.5v-2.82v-1.88v-0.14C40,29.08,38.99,28.02,37.71,27.9z M36.73,24.9H36.6
		h-4.25v-1.03h2.93C35.95,23.87,36.52,24.3,36.73,24.9z M32.35,27.88V25.9h3.86l0.47,1.98H32.35z M18.97,37.17
		c-1.06,0-1.93-0.87-1.93-1.93s0.87-1.93,1.93-1.93c1.05,0,1.91,0.85,1.93,1.9c0,0.01-0.01,0.02-0.01,0.03s0.01,0.02,0.01,0.03
		C20.88,36.32,20.02,37.17,18.97,37.17z M35.76,37.17c-1.05,0-1.91-0.85-1.93-1.9c0-0.01,0.01-0.02,0.01-0.03s-0.01-0.02-0.01-0.03
		c0.02-1.05,0.87-1.9,1.93-1.9c1.06,0,1.93,0.87,1.93,1.93S36.82,37.17,35.76,37.17z M38.62,31.91c-0.24,0-0.42-0.18-0.42-0.42
		v-0.46H39v0.88H38.62z"/>
	<path d="M28.87,33.43c0.28,0,0.5-0.22,0.5-0.5s-0.22-0.5-0.5-0.5h-6.42c-0.28,0-0.5,0.22-0.5,0.5s0.22,0.5,0.5,0.5H28.87z"/>
	<path d="M18.97,33.94c-0.72,0-1.3,0.58-1.3,1.3s0.58,1.3,1.3,1.3s1.3-0.58,1.3-1.3S19.69,33.94,18.97,33.94z M18.97,35.54
		c-0.17,0-0.3-0.13-0.3-0.3s0.13-0.3,0.3-0.3s0.3,0.13,0.3,0.3S19.14,35.54,18.97,35.54z"/>
	<path d="M35.76,33.94c-0.72,0-1.3,0.58-1.3,1.3s0.58,1.3,1.3,1.3s1.3-0.58,1.3-1.3S36.48,33.94,35.76,33.94z M35.76,35.54
		c-0.17,0-0.3-0.13-0.3-0.3s0.13-0.3,0.3-0.3s0.3,0.13,0.3,0.3S35.92,35.54,35.76,35.54z"/>
	<path d="M16.48,18.3c0.11,0,0.23-0.04,0.32-0.12l2.3-1.92c0.21-0.18,0.24-0.49,0.06-0.7c-0.18-0.21-0.49-0.24-0.7-0.06l-2.3,1.92
		c-0.21,0.18-0.24,0.49-0.06,0.7C16.19,18.24,16.33,18.3,16.48,18.3z"/>
	<path d="M23.67,19.49c0.28,0,0.5-0.22,0.5-0.5v-1.31c0-0.28-0.22-0.5-0.5-0.5s-0.5,0.22-0.5,0.5v1.31
		C23.17,19.27,23.39,19.49,23.67,19.49z"/>
	<path d="M29.63,18.29c0.1,0.1,0.23,0.15,0.35,0.15s0.26-0.05,0.35-0.15c0.2-0.2,0.2-0.51,0-0.71l-1.72-1.72
		c-0.2-0.2-0.51-0.2-0.71,0s-0.2,0.51,0,0.71L29.63,18.29z"/>
</g>
</svg>
