<?xml version="1.0" encoding="utf-8"?>
<!-- Generator: Adobe Illustrator 25.2.3, SVG Export Plug-In . SVG Version: 6.00 Build 0)  -->
<svg version="1.1" id="Layer_1" xmlns="http://www.w3.org/2000/svg" xmlns:xlink="http://www.w3.org/1999/xlink" x="0px" y="0px"
	 viewBox="0 0 48 48" style="enable-background:new 0 0 48 48;" xml:space="preserve">
<g>
	<path d="M25.71,34.45c-2.14,0.44-4.1,0.45-5.81,0.04c-2.14-0.51-3.98-2.01-5.03-4.12l-3.1-6.22c-0.35-0.72-0.06-1.59,0.65-1.95
		c0.72-0.36,1.59-0.06,1.95,0.65l2.13,4.32c0.1,0.21,0.33,0.32,0.56,0.27c0.23-0.05,0.39-0.25,0.39-0.49V14.04
		c0-0.68,0.55-1.23,1.23-1.23s1.23,0.55,1.23,1.23v8.12c0,0.28,0.22,0.5,0.5,0.5c0,0,0,0,0,0s0,0,0,0c0.28,0,0.5-0.22,0.5-0.5v-8.12
		c0-0.68,0.55-1.23,1.23-1.23s1.23,0.55,1.23,1.23v8.12c0,0.28,0.22,0.5,0.5,0.5c0,0,0,0,0.01,0s0,0,0.01,0c0.28,0,0.5-0.22,0.5-0.5
		v-8.12c0-0.68,0.55-1.23,1.23-1.23s1.23,0.55,1.23,1.23v4.33v3.79c0,0.28,0.22,0.5,0.5,0.5s0.5-0.22,0.5-0.5v-3.79
		c0-0.68,0.55-1.23,1.23-1.23c0.68,0,1.23,0.55,1.23,1.23v6.67c0,0.28,0.22,0.5,0.5,0.5s0.5-0.22,0.5-0.5v-6.67
		c0-1.23-1-2.23-2.23-2.23c-0.45,0-0.88,0.14-1.23,0.37v-2.47c0-1.23-1-2.23-2.23-2.23c-0.7,0-1.33,0.33-1.74,0.85
		c-0.41-0.51-1.03-0.85-1.74-0.85c-0.7,0-1.33,0.33-1.73,0.85c-0.41-0.51-1.03-0.85-1.73-0.85c-1.23,0-2.23,1-2.23,2.23v10.78
		l-1.18-2.4c-0.6-1.21-2.08-1.7-3.29-1.1c-1.21,0.6-1.7,2.08-1.1,3.29l3.1,6.22c1.19,2.37,3.26,4.06,5.69,4.64
		c0.91,0.22,1.87,0.32,2.88,0.32c1.07,0,2.19-0.12,3.37-0.36c0.27-0.06,0.44-0.32,0.39-0.59C26.24,34.57,25.98,34.4,25.71,34.45z"/>
	<path d="M32.75,27.18c-0.01-0.01-0.02-0.02-0.03-0.03c-0.01-0.01-0.03-0.02-0.05-0.03c-0.72-0.54-1.6-0.86-2.57-0.86
		c-2.39,0-4.33,1.94-4.33,4.33c0,1.17,0.47,2.24,1.24,3.02c0.02,0.03,0.04,0.07,0.08,0.1c0.03,0.02,0.06,0.04,0.09,0.05
		c0.77,0.71,1.79,1.16,2.92,1.16c2.39,0,4.33-1.94,4.33-4.33C34.44,29.19,33.77,27.97,32.75,27.18z M30.11,27.25
		c0.55,0,1.07,0.15,1.53,0.39l-4.21,4.9c-0.4-0.55-0.65-1.22-0.65-1.96C26.78,28.74,28.27,27.25,30.11,27.25z M30.11,33.91
		c-0.74,0-1.42-0.25-1.97-0.66l4.32-5.03c0.61,0.6,0.98,1.44,0.98,2.36C33.44,32.42,31.95,33.91,30.11,33.91z"/>
	<path d="M23.69,4.94c-10.58,0-19.18,8.6-19.18,19.18s8.6,19.18,19.18,19.18c10.58,0,19.18-8.6,19.18-19.18S34.27,4.94,23.69,4.94z
		 M23.69,42.3c-10.02,0-18.18-8.16-18.18-18.18S13.67,5.94,23.69,5.94c10.02,0,18.18,8.16,18.18,18.18S33.71,42.3,23.69,42.3z"/>
</g>
</svg>
