<?xml version="1.0" encoding="utf-8"?>
<!-- Generator: Adobe Illustrator 25.2.3, SVG Export Plug-In . SVG Version: 6.00 Build 0)  -->
<svg version="1.1" id="Layer_1" xmlns="http://www.w3.org/2000/svg" xmlns:xlink="http://www.w3.org/1999/xlink" x="0px" y="0px"
	 viewBox="0 0 48 48" style="enable-background:new 0 0 48 48;" xml:space="preserve">
<g>
	<path d="M6.38,9.07c-0.16-0.23-0.47-0.28-0.7-0.13C5.46,9.1,5.4,9.41,5.56,9.63l20.28,29.3c0.1,0.14,0.25,0.22,0.41,0.22
		c0.1,0,0.2-0.03,0.28-0.09c0.23-0.16,0.28-0.47,0.13-0.7L6.38,9.07z"/>
	<path d="M22.12,37.81H8.39c-0.94,0-1.7-0.76-1.7-1.7V12.99c0-0.28-0.22-0.5-0.5-0.5s-0.5,0.22-0.5,0.5v23.12
		c0,1.49,1.21,2.7,2.7,2.7h13.73c0.28,0,0.5-0.22,0.5-0.5S22.4,37.81,22.12,37.81z"/>
	<path d="M12.03,22.1h0.66c0.28,0,0.5-0.22,0.5-0.5s-0.22-0.5-0.5-0.5h-0.66c-0.88,0-1.6,0.72-1.6,1.6v9.53c0,0.88,0.72,1.6,1.6,1.6
		h7.4c0.28,0,0.5-0.22,0.5-0.5s-0.22-0.5-0.5-0.5h-2.26v-5.74c0-0.28-0.22-0.5-0.5-0.5h-5.24V22.7
		C11.43,22.36,11.69,22.1,12.03,22.1z M16.17,27.59v5.24h-4.14c-0.34,0-0.6-0.26-0.6-0.6v-4.64H16.17z"/>
	<path d="M22.11,30.65c0.28,0,0.5-0.22,0.5-0.5V22.7c0-0.88-0.72-1.6-1.6-1.6h-4.13c-0.28,0-0.5,0.22-0.5,0.5s0.22,0.5,0.5,0.5h4.13
		c0.34,0,0.6,0.26,0.6,0.6v7.45C21.61,30.43,21.83,30.65,22.11,30.65z"/>
	<path d="M37.6,32.68c-0.88,0-1.59,0.71-1.59,1.59s0.71,1.59,1.59,1.59s1.59-0.71,1.59-1.59S38.48,32.68,37.6,32.68z M37.6,34.86
		c-0.33,0-0.59-0.26-0.59-0.59c0-0.33,0.26-0.59,0.59-0.59c0.33,0,0.59,0.26,0.59,0.59C38.19,34.6,37.93,34.86,37.6,34.86z"/>
	<path d="M40.44,25.64l-0.76-3.98v-1.04c0-1.08-0.87-1.95-1.95-1.95h-4.07v-1.6c0-0.28-0.22-0.5-0.5-0.5h-6.32
		c-0.08-0.59-0.3-1.16-0.67-1.64l-3.46-4.47c-0.65-0.83-1.62-1.3-2.65-1.3H8.9c-0.28,0-0.5,0.22-0.5,0.5s0.22,0.5,0.5,0.5h11.16
		c0.73,0,1.41,0.33,1.86,0.92l3.46,4.47c0.32,0.41,0.49,0.92,0.49,1.44V35.1c0,0.28,0.22,0.5,0.5,0.5s0.5-0.22,0.5-0.5v-0.33h6.28
		h1.14c0.24,1.61,1.62,2.85,3.3,2.85c1.67,0,3.05-1.24,3.3-2.84h1.14c0.28,0,0.5-0.22,0.5-0.5v-5.8
		C42.54,27.14,41.65,26.02,40.44,25.64z M33.66,22.21h5.11l0.63,3.28h-5.73V22.21z M37.73,19.67c0.52,0,0.95,0.43,0.95,0.95v0.59
		h-5.02v-1.54H37.73z M37.6,36.62c-1.3,0-2.35-1.05-2.35-2.35s1.05-2.35,2.35-2.35s2.35,1.05,2.35,2.35S38.9,36.62,37.6,36.62z
		 M40.9,33.78c-0.24-1.61-1.62-2.86-3.3-2.86c-1.68,0-3.06,1.24-3.3,2.85h-0.64v-4.14c0-0.28-0.22-0.5-0.5-0.5s-0.5,0.22-0.5,0.5
		v4.14h-5.78v-1.34h4.63c0.28,0,0.5-0.22,0.5-0.5s-0.22-0.5-0.5-0.5h-4.63V17.57h5.78v1.6v2.54v5.26c0,0.28,0.22,0.5,0.5,0.5
		s0.5-0.22,0.5-0.5v-0.48h5.89c0.89,0,1.64,0.6,1.89,1.41H40c-0.28,0-0.5,0.22-0.5,0.5v1.18c0,0.98,0.8,1.78,1.78,1.78h0.26v2.42
		H40.9z M41.53,28.9v1.46h-0.25c-0.43,0-0.78-0.35-0.78-0.78V28.9H41.53z"/>
</g>
</svg>
