<?xml version="1.0" encoding="utf-8"?>
<!-- Generator: Adobe Illustrator 25.2.3, SVG Export Plug-In . SVG Version: 6.00 Build 0)  -->
<svg version="1.1" id="Layer_1" xmlns="http://www.w3.org/2000/svg" xmlns:xlink="http://www.w3.org/1999/xlink" x="0px" y="0px"
	 viewBox="0 0 48 48" style="enable-background:new 0 0 48 48;" xml:space="preserve">
<g>
	<path d="M9.99,12.95h10.75c0.28,0,0.5-0.22,0.5-0.5s-0.22-0.5-0.5-0.5H9.99c-0.28,0-0.5,0.22-0.5,0.5S9.71,12.95,9.99,12.95z"/>
	<path d="M9.99,18.24h10.75c0.28,0,0.5-0.22,0.5-0.5s-0.22-0.5-0.5-0.5H9.99c-0.28,0-0.5,0.22-0.5,0.5S9.71,18.24,9.99,18.24z"/>
	<path d="M18.77,27.84h-1.25c-0.03-0.01-0.06-0.02-0.1-0.02H11.3c-0.03,0-0.06,0.01-0.1,0.02h-1.03c-0.28,0-0.5,0.22-0.5,0.5
		s0.22,0.5,0.5,0.5h8.6c0.28,0,0.5-0.22,0.5-0.5S19.05,27.84,18.77,27.84z"/>
	<path d="M39.1,25.86l-0.51-2.14h0.12c0.28,0,0.5-0.22,0.5-0.5c0-1.45-1.18-2.63-2.62-2.63h-3.15c-0.16-0.62-0.72-1.09-1.39-1.09
		h-7.77V8.85c0-0.93-0.75-1.68-1.68-1.68H8.18c-0.93,0-1.68,0.75-1.68,1.68v30.3c0,0.93,0.75,1.68,1.68,1.68h14.43
		c0.93,0,1.68-0.75,1.68-1.68v-5.13h8.7h1.11c0.24,1.44,1.48,2.54,2.99,2.54s2.75-1.1,2.99-2.54H41c0.28,0,0.5-0.22,0.5-0.5v-2.96
		v-1.97v-0.14C41.5,27.08,40.44,25.97,39.1,25.86z M40.5,30.06h-0.46c-0.24,0-0.42-0.18-0.42-0.42v-0.55h0.88V30.06z M38.07,25.84
		h-4.58v-2.12h4.07L38.07,25.84z M38.13,22.72h-0.17h-4.47v-1.13h3.1C37.31,21.59,37.92,22.06,38.13,22.72z M37.09,35.56
		c-1.12,0-2.04-0.92-2.04-2.04c0-1.12,0.92-2.04,2.04-2.04s2.04,0.92,2.04,2.04C39.13,34.64,38.21,35.56,37.09,35.56z M40.08,33.02
		c-0.24-1.44-1.48-2.54-2.99-2.54s-2.75,1.1-2.99,2.54h-0.61v-2.04v-0.36c0-0.28-0.22-0.5-0.5-0.5s-0.5,0.22-0.5,0.5v0.36v2.04H22.5
		c-0.24-1.44-1.48-2.54-2.99-2.54c-1.5,0-2.75,1.1-2.99,2.54h-1.91c-0.24,0-0.44-0.2-0.44-0.44v-1.47h1.72c0.28,0,0.5-0.22,0.5-0.5
		s-0.22-0.5-0.5-0.5h-4.44c-0.28,0-0.5,0.22-0.5,0.5s0.22,0.5,0.5,0.5h1.72v1.47c0,0.79,0.65,1.44,1.44,1.44h1.91
		c0.24,1.44,1.48,2.54,2.99,2.54c1.51,0,2.75-1.1,2.99-2.54h0.79v5.13c0,0.38-0.31,0.68-0.68,0.68H8.18c-0.38,0-0.68-0.3-0.68-0.68
		V8.85c0-0.38,0.31-0.68,0.68-0.68H22.6c0.38,0,0.68,0.31,0.68,0.68V19.5h-8.67c-0.79,0-1.44,0.65-1.44,1.44v1.59H9.99
		c-0.28,0-0.5,0.22-0.5,0.5s0.22,0.5,0.5,0.5h3.18v3.23c0,0.28,0.22,0.5,0.5,0.5s0.5-0.22,0.5-0.5v-5.82c0-0.24,0.2-0.44,0.44-0.44
		h17.44c0.24,0,0.44,0.2,0.44,0.44v0.15v2.13v3.12v0.73c0,0.28,0.22,0.5,0.5,0.5s0.5-0.22,0.5-0.5v-0.23h5.21h0.19
		c0.76,0,1.4,0.54,1.57,1.25h-1.34c-0.28,0-0.5,0.22-0.5,0.5v1.05c0,0.78,0.64,1.42,1.42,1.42h0.46v1.96H40.08z M21.55,33.52
		c0,1.12-0.92,2.04-2.04,2.04c-1.12,0-2.04-0.92-2.04-2.04c0-1.12,0.92-2.04,2.04-2.04C20.63,31.48,21.55,32.4,21.55,33.52z"/>
	<path d="M29.87,30.6h-6.72c-0.28,0-0.5,0.22-0.5,0.5s0.22,0.5,0.5,0.5h6.72c0.28,0,0.5-0.22,0.5-0.5S30.15,30.6,29.87,30.6z"/>
	<path d="M18.18,33.52c0,0.73,0.6,1.33,1.33,1.33c0.73,0,1.33-0.6,1.33-1.33c0-0.73-0.6-1.33-1.33-1.33
		C18.78,32.19,18.18,32.79,18.18,33.52z M19.84,33.52c0,0.18-0.15,0.33-0.33,0.33c-0.18,0-0.33-0.15-0.33-0.33s0.15-0.33,0.33-0.33
		C19.69,33.19,19.84,33.34,19.84,33.52z"/>
	<path d="M37.09,32.19c-0.73,0-1.33,0.6-1.33,1.33c0,0.73,0.6,1.33,1.33,1.33s1.33-0.6,1.33-1.33
		C38.42,32.79,37.82,32.19,37.09,32.19z M37.09,33.85c-0.18,0-0.33-0.15-0.33-0.33s0.15-0.33,0.33-0.33s0.33,0.15,0.33,0.33
		S37.27,33.85,37.09,33.85z"/>
</g>
</svg>
