<?xml version="1.0" encoding="utf-8"?>
<!-- Generator: Adobe Illustrator 25.2.3, SVG Export Plug-In . SVG Version: 6.00 Build 0)  -->
<svg version="1.1" id="Layer_1" xmlns="http://www.w3.org/2000/svg" xmlns:xlink="http://www.w3.org/1999/xlink" x="0px" y="0px"
	 viewBox="0 0 48 48" style="enable-background:new 0 0 48 48;" xml:space="preserve">
<g>
	<path d="M34.6,23.6h-6.4c-0.8,0-1.5,0.7-1.5,1.5v4.8c0,0.8,0.7,1.5,1.5,1.5h6.4c0.8,0,1.5-0.7,1.5-1.5V25
		C36.1,24.2,35.4,23.6,34.6,23.6z M35.1,29.8c0,0.3-0.2,0.5-0.5,0.5h-6.4c-0.3,0-0.5-0.2-0.5-0.5V25c0-0.3,0.2-0.5,0.5-0.5h6.4
		c0.3,0,0.5,0.2,0.5,0.5V29.8z"/>
	<path d="M39.1,8.8H8.9c-1.9,0-3.5,1.6-3.5,3.5V16c0,1.7,1.3,3.2,2.9,3.4v16.3c0,1.9,1.6,3.5,3.5,3.5h24.4c1.9,0,3.5-1.6,3.5-3.5
		V19.4c1.7-0.3,2.9-1.7,2.9-3.4v-3.7C42.6,10.3,41,8.8,39.1,8.8z M13.3,28.4c0-2.1,1.7-3.8,3.8-3.8s3.8,1.7,3.8,3.8l0,9.8h-7.7
		L13.3,28.4z M36.2,38.2H22l0-9.8c0-2.7-2.2-4.8-4.8-4.8s-4.8,2.2-4.8,4.8l0,9.8h-0.5c-1.4,0-2.5-1.1-2.5-2.5V19.5h29.4v16.3
		C38.7,37.1,37.6,38.2,36.2,38.2z M41.6,16c0,1.4-1.1,2.5-2.5,2.5H8.9c-1.4,0-2.5-1.1-2.5-2.5v-3.7c0-1.4,1.1-2.5,2.5-2.5h30.2
		c1.4,0,2.5,1.1,2.5,2.5V16z"/>
</g>
</svg>
