<?xml version="1.0" encoding="utf-8"?>
<!-- Generator: Adobe Illustrator 25.2.3, SVG Export Plug-In . SVG Version: 6.00 Build 0)  -->
<svg version="1.1" id="Layer_1" xmlns="http://www.w3.org/2000/svg" xmlns:xlink="http://www.w3.org/1999/xlink" x="0px" y="0px"
	 viewBox="0 0 48 48" style="enable-background:new 0 0 48 48;" xml:space="preserve">
<g>
	<path d="M27,32.7h9.7c0.9,0,1.6-0.7,1.6-1.6v-6.3c0-0.9-0.7-1.6-1.6-1.6H27c-0.9,0-1.6,0.7-1.6,1.6v6.3C25.4,32,26.1,32.7,27,32.7z
		 M26.4,24.9c0-0.3,0.3-0.6,0.6-0.6h9.7c0.3,0,0.6,0.3,0.6,0.6v6.3c0,0.3-0.3,0.6-0.6,0.6H27c-0.3,0-0.6-0.3-0.6-0.6V24.9z"/>
	<path d="M42.6,36.1h-0.9V17.8h0.1c0.8,0,1.5-0.7,1.5-1.5v-3.6c0-0.1,0-0.1,0-0.2c0,0,0,0,0,0l-2.4-5c-0.3-0.6-0.8-0.9-1.5-0.9
		l-10.4,0c-0.1,0-0.1,0-0.2,0c0,0,0,0,0,0l-20.3,0C8,6.5,7.4,6.9,7.2,7.4l-2.5,5c0,0,0,0,0,0c0,0.1,0,0.1,0,0.2v3.6
		c0,0.8,0.7,1.5,1.5,1.5h0.6v18.3H5.4c-0.6,0-1.2,0.5-1.2,1.2v3.1c0,0.6,0.5,1.2,1.2,1.2h37.3c0.6,0,1.2-0.5,1.2-1.2v-3.1
		C43.8,36.6,43.3,36.1,42.6,36.1z M40,7.9l2,4.3h-5.6L35,7.5l4.5,0C39.7,7.5,39.9,7.7,40,7.9z M18.1,7.5L17,12.2h-4.8l1.4-4.7
		L18.1,7.5z M19.1,7.5l4.2,0v4.7H18L19.1,7.5z M24.4,7.5l4.2,0l0.8,4.7h-5.1V7.5z M30.4,12.2l-0.8-4.7l4.3,0l1.4,4.7H30.4z M8.1,7.9
		c0.1-0.2,0.3-0.3,0.5-0.3l4,0l-1.4,4.7H6L8.1,7.9z M5.7,16.3v-3.1h36.7v3.1c0,0.3-0.2,0.5-0.5,0.5h-0.6H7.3H6.2
		C5.9,16.8,5.7,16.5,5.7,16.3z M7.8,17.8h32.9v18.3H21.3V24.9c0-0.9-0.7-1.6-1.6-1.6h-7.8c-0.9,0-1.6,0.7-1.6,1.6v11.2H7.8V17.8z
		 M20.3,36.1h-9V24.9c0-0.3,0.3-0.6,0.6-0.6h7.8c0.3,0,0.6,0.3,0.6,0.6V36.1z M42.8,40.3c0,0.1-0.1,0.2-0.2,0.2H5.4
		c-0.1,0-0.2-0.1-0.2-0.2v-3.1c0-0.1,0.1-0.2,0.2-0.2h1.9h3.5h10h20.5h1.4c0.1,0,0.2,0.1,0.2,0.2V40.3z"/>
</g>
</svg>
