<?xml version="1.0" encoding="utf-8"?>
<!-- Generator: Adobe Illustrator 25.2.3, SVG Export Plug-In . SVG Version: 6.00 Build 0)  -->
<svg version="1.1" id="Layer_1" xmlns="http://www.w3.org/2000/svg" xmlns:xlink="http://www.w3.org/1999/xlink" x="0px" y="0px"
	 viewBox="0 0 48 48" style="enable-background:new 0 0 48 48;" xml:space="preserve">
<path d="M38.1,44.3h-9.1c-0.9,0-1.6-0.7-1.6-1.6v-8.4c0-0.4-0.3-0.6-0.6-0.6h-5.6c-0.4,0-0.6,0.3-0.6,0.6v8.4c0,0.9-0.7,1.6-1.6,1.6
	H9.8c-0.9,0-1.6-0.7-1.6-1.6V26.1c0-0.4-0.3-0.6-0.6-0.6H4.8c-0.7,0-1.3-0.4-1.5-1c-0.2-0.6-0.1-1.3,0.4-1.8L22.9,4.2
	c0.6-0.6,1.6-0.6,2.3,0l19.2,18.5c0.5,0.5,0.6,1.2,0.4,1.8c-0.3,0.6-0.8,1-1.5,1h-2.8c-0.4,0-0.6,0.3-0.6,0.6v16.5
	C39.8,43.5,39.1,44.3,38.1,44.3z M21.2,32.6h5.6c0.9,0,1.6,0.7,1.6,1.6v8.4c0,0.4,0.3,0.6,0.6,0.6h9.1c0.4,0,0.6-0.3,0.6-0.6V26.1
	c0-0.9,0.7-1.6,1.6-1.6h2.8c0.4,0,0.6-0.3,0.6-0.4c0-0.1,0.1-0.4-0.1-0.7L24.4,4.9c-0.2-0.2-0.6-0.2-0.9,0L4.3,23.4
	c-0.3,0.3-0.2,0.6-0.2,0.7c0,0.1,0.2,0.4,0.6,0.4h2.8c0.9,0,1.6,0.7,1.6,1.6v16.5c0,0.4,0.3,0.6,0.6,0.6h9.1c0.4,0,0.6-0.3,0.6-0.6
	v-8.4C19.5,33.3,20.3,32.6,21.2,32.6z"/>
</svg>
