<?xml version="1.0" encoding="utf-8"?>
<!-- Generator: Adobe Illustrator 25.2.3, SVG Export Plug-In . SVG Version: 6.00 Build 0)  -->
<svg version="1.1" id="Layer_1" xmlns="http://www.w3.org/2000/svg" xmlns:xlink="http://www.w3.org/1999/xlink" x="0px" y="0px"
	 viewBox="0 0 48 48" style="enable-background:new 0 0 48 48;" xml:space="preserve">
<path d="M40.6,22.3L28,20.5c-0.5-0.1-0.9,0-1.3,0.3v-9.4c0-1-0.7-1.8-1.7-2L8,6.4C7.5,6.3,6.9,6.5,6.4,6.9C5.9,7.2,5.7,7.8,5.7,8.4
	v32.7c0,0.3,0.2,0.5,0.5,0.5h20.1c0,0,0,0,0.1,0h15.5c0.3,0,0.5-0.2,0.5-0.5V24.3C42.3,23.3,41.6,22.5,40.6,22.3z M6.7,8.4
	c0-0.3,0.1-0.6,0.4-0.8c0.2-0.2,0.5-0.3,0.8-0.2l17.1,3c0.5,0.1,0.8,0.5,0.8,1v11.1v18.1h-5v-6.5c0-1.1-0.9-2-2-2h-5
	c-1.1,0-2,0.9-2,2v6.5h-5V8.4z M12.7,40.6v-6.5c0-0.6,0.4-1,1-1h5c0.6,0,1,0.4,1,1v6.5H12.7z M41.3,40.6H26.7V22.5
	c0-0.3,0.1-0.6,0.3-0.8c0.2-0.2,0.5-0.3,0.8-0.2l12.6,1.8c0.5,0.1,0.9,0.5,0.9,1V40.6z"/>
</svg>
