<?xml version="1.0" encoding="utf-8"?>
<!-- Generator: Adobe Illustrator 25.2.3, SVG Export Plug-In . SVG Version: 6.00 Build 0)  -->
<svg version="1.1" id="Layer_1" xmlns="http://www.w3.org/2000/svg" xmlns:xlink="http://www.w3.org/1999/xlink" x="0px" y="0px"
	 viewBox="0 0 48 48" style="enable-background:new 0 0 48 48;" xml:space="preserve">
<g>
	<path d="M40.7,22l-12.6-1.7c-0.5-0.1-0.9,0-1.3,0.2v-8.8c0-1.2-0.8-2.2-2-2.4L8.5,6.5C7.8,6.3,7.1,6.5,6.6,7C6,7.4,5.7,8.1,5.7,8.8
		v32.2c0,0.3,0.2,0.5,0.5,0.5h20h0h0h15.6c0.3,0,0.5-0.2,0.5-0.5V23.6C42.3,22.8,41.6,22.1,40.7,22z M12.7,40.6V34c0-0.5,0.4-1,1-1
		h5.1c0.5,0,1,0.4,1,1v6.5H12.7z M25.7,40.6h-5V34c0-1.1-0.9-2-2-2h-5.1c-1.1,0-2,0.9-2,2v6.5h-5V8.8c0-0.4,0.2-0.8,0.5-1.1
		c0.3-0.3,0.7-0.4,1.1-0.3l16.2,2.9c0.7,0.1,1.2,0.7,1.2,1.4V40.6z M41.3,40.6H26.8V21.9c0-0.2,0.1-0.3,0.2-0.4
		c0.2-0.2,0.6-0.3,1-0.2L40.5,23c0.5,0.1,0.8,0.3,0.8,0.6V40.6z"/>
	<path d="M35.8,36.6h-3.5c-0.3,0-0.5,0.2-0.5,0.5s0.2,0.5,0.5,0.5h3.5c0.3,0,0.5-0.2,0.5-0.5S36,36.6,35.8,36.6z"/>
	<path d="M35.8,32.2h-3.5c-0.3,0-0.5,0.2-0.5,0.5s0.2,0.5,0.5,0.5h3.5c0.3,0,0.5-0.2,0.5-0.5S36,32.2,35.8,32.2z"/>
	<path d="M17.9,27.4h-3.5c-0.3,0-0.5,0.2-0.5,0.5s0.2,0.5,0.5,0.5h3.5c0.3,0,0.5-0.2,0.5-0.5S18.2,27.4,17.9,27.4z"/>
	<path d="M17.9,22.9h-3.5c-0.3,0-0.5,0.2-0.5,0.5s0.2,0.5,0.5,0.5h3.5c0.3,0,0.5-0.2,0.5-0.5S18.2,22.9,17.9,22.9z"/>
	<path d="M17.9,18.2h-3.5c-0.3,0-0.5,0.2-0.5,0.5s0.2,0.5,0.5,0.5h3.5c0.3,0,0.5-0.2,0.5-0.5S18.2,18.2,17.9,18.2z"/>
</g>
</svg>
