<?xml version="1.0" encoding="utf-8"?>
<!-- Generator: Adobe Illustrator 25.2.3, SVG Export Plug-In . SVG Version: 6.00 Build 0)  -->
<svg version="1.1" id="Layer_1" xmlns="http://www.w3.org/2000/svg" xmlns:xlink="http://www.w3.org/1999/xlink" x="0px" y="0px"
	 viewBox="0 0 48 48" style="enable-background:new 0 0 48 48;" xml:space="preserve">
<path d="M41.5,16.3L27.1,5.5c-1.9-1.4-4.5-1.4-6.3,0L6.5,16.3c-1.3,1-2.1,2.6-2.1,4.2v17.7c0,2.9,2.4,5.3,5.3,5.3h28.7
	c2.9,0,5.3-2.4,5.3-5.3V20.5C43.6,18.9,42.8,17.3,41.5,16.3z M17.7,42.5V25.9c0-1.9,1.6-3.5,3.5-3.5h5.6c1.9,0,3.5,1.6,3.5,3.5v16.6
	H17.7z M42.6,38.2c0,2.4-1.9,4.3-4.3,4.3h-7V25.9c0-2.5-2-4.5-4.5-4.5h-5.6c-2.5,0-4.5,2-4.5,4.5v16.6h-7c-2.4,0-4.3-1.9-4.3-4.3
	V20.5c0-1.3,0.6-2.6,1.7-3.4L21.3,6.3c0.8-0.6,1.7-0.9,2.6-0.9c0.9,0,1.8,0.3,2.6,0.8l14.4,10.8c1.1,0.8,1.7,2.1,1.7,3.4V38.2z"/>
</svg>
