<?xml version="1.0" encoding="utf-8"?>
<!-- Generator: Adobe Illustrator 25.2.3, SVG Export Plug-In . SVG Version: 6.00 Build 0)  -->
<svg version="1.1" id="Layer_1" xmlns="http://www.w3.org/2000/svg" xmlns:xlink="http://www.w3.org/1999/xlink" x="0px" y="0px"
	 viewBox="0 0 48 48" style="enable-background:new 0 0 48 48;" xml:space="preserve">
<path d="M41.9,18.7L27.5,4.9c-2-1.9-5.1-1.9-7.1,0L6.1,18.7c-1,1-1.6,2.3-1.6,3.7v17.1c0,2.8,2.3,5.1,5.1,5.1h8.2h12.3h8.2
	c2.8,0,5.1-2.3,5.1-5.1V22.4C43.5,21,42.9,19.6,41.9,18.7z M18.8,43.5v-9.2c0-1.9,1.6-3.5,3.5-3.5h3.3c1.9,0,3.5,1.6,3.5,3.5v9.2
	H18.8z M42.5,39.4c0,2.3-1.8,4.1-4.1,4.1h-8.2v-9.2c0-2.5-2-4.5-4.5-4.5h-3.3c-2.5,0-4.5,2-4.5,4.5v9.2H9.6c-2.3,0-4.1-1.8-4.1-4.1
	V22.4c0-1.1,0.5-2.2,1.3-3L21.2,5.6C22,4.9,23,4.5,24,4.5s2,0.4,2.8,1.1l14.4,13.8c0.8,0.8,1.3,1.9,1.3,3V39.4z"/>
</svg>
