<?xml version="1.0" encoding="utf-8"?>
<!-- Generator: Adobe Illustrator 25.2.3, SVG Export Plug-In . SVG Version: 6.00 Build 0)  -->
<svg version="1.1" id="Layer_1" xmlns="http://www.w3.org/2000/svg" xmlns:xlink="http://www.w3.org/1999/xlink" x="0px" y="0px"
	 viewBox="0 0 48 48" style="enable-background:new 0 0 48 48;" xml:space="preserve">
<style type="text/css">
	.st0{fill:none;}
	.st1{fill:none;stroke:#000000;stroke-linecap:round;stroke-linejoin:round;stroke-miterlimit:10;}
	.st2{fill:none;stroke:#000000;stroke-miterlimit:10;}
	.st3{fill:none;stroke:#000000;stroke-linecap:round;stroke-miterlimit:3;stroke-dasharray:3,2;}
	.st4{fill:none;stroke:#000000;stroke-linecap:round;stroke-miterlimit:10;}
</style>
<g>
	<path d="M4.21,36.01L7,37.05c0.47,0.17,0.96,0.26,1.44,0.26c1.07,0,2.12-0.41,2.91-1.17l3.48-3.37l4.44,4.99
		c0.09,0.1,0.21,0.16,0.34,0.17c0.01,0,0.02,0,0.03,0c0.12,0,0.24-0.04,0.33-0.13l1.6-1.42c0.21-0.18,0.22-0.5,0.04-0.71L9.95,22.56
		c-0.09-0.1-0.21-0.16-0.34-0.17c-0.12,0-0.26,0.04-0.36,0.13l-1.6,1.42c-0.21,0.18-0.22,0.5-0.04,0.71l3.75,4.21l-1.72,2.31
		c-0.9,1.21-2.55,1.62-3.91,0.96l-1.11-0.54c-0.16-0.07-0.34-0.06-0.48,0.03s-0.23,0.25-0.23,0.42v3.5
		C3.89,35.75,4.02,35.94,4.21,36.01z M9.53,23.6l11,12.36l-0.85,0.76l-11-12.36L9.53,23.6z M4.89,32.84l0.4,0.19
		c1.79,0.86,3.96,0.33,5.15-1.27l1.6-2.15l2.14,2.4l-3.51,3.4c-0.87,0.85-2.17,1.12-3.31,0.69l-2.46-0.92V32.84z"/>
	<path d="M44,40.28H4c-0.28,0-0.5,0.22-0.5,0.5s0.22,0.5,0.5,0.5h40c0.28,0,0.5-0.22,0.5-0.5S44.28,40.28,44,40.28z"/>
	<path d="M16.81,28.49c0.88,0.99,1.92,1.82,3.08,2.47l3.2,1.8c0.54,0.3,1.02,0.68,1.45,1.13l1.18,1.25l3.59,3.08
		c1.43,1.1,2.73,1.38,3.69,1.38c0.19,0,0.36-0.01,0.52-0.03c0.66-0.07,1.21-0.48,1.47-1.09c0.2-0.46,0.19-0.96-0.01-1.4
		c2.19-0.83,3.1-3.33,3.16-4.96c0.02-0.44,0.11-0.84,0.29-1.21l0.82-1.69c0-0.01,0-0.01,0.01-0.02c0,0,0.01,0,0.01-0.01l0.76-1.83
		l0.82,0.71c0.09,0.08,0.21,0.12,0.33,0.12c0.14,0,0.27-0.06,0.37-0.17l1.97-2.19c0.08-0.09,0.13-0.21,0.13-0.33V7.22
		c0-0.21-0.13-0.4-0.33-0.47c-0.2-0.07-0.42-0.02-0.55,0.14l-11,12.68c-0.09,0.1-0.13,0.23-0.12,0.36c0.01,0.13,0.07,0.26,0.17,0.34
		l0.86,0.74l-1.38,1.75l-0.67-0.5c-0.14-0.1-0.32-0.13-0.48-0.06c-0.03,0.01-3.4,1.29-7.73-0.26l-4.92-1.86
		c-0.07-0.03-1.71-0.62-3.27,0.81l-0.31-0.3c-0.19-0.19-0.5-0.19-0.69-0.01l-1.53,1.42c-0.2,0.19-0.21,0.5-0.03,0.7L16.81,28.49z
		 M42.63,8.56v16.76l-1.51,1.69l-8.28-7.16L42.63,8.56z M33.41,21.67l5.8,5.01l-0.64,1.54l-6.5-4.85L33.41,21.67z M17.12,21.03
		l4.93,1.86c0.76,0.27,1.48,0.44,2.18,0.58l0.45,2.08c0.05,0.23,0.26,0.39,0.49,0.39c0.04,0,0.07,0,0.11-0.01
		c0.27-0.06,0.44-0.33,0.38-0.59l-0.37-1.71c0.52,0.06,1,0.08,1.45,0.08l0.78,1.78c0.08,0.19,0.27,0.3,0.46,0.3
		c0.07,0,0.13-0.01,0.2-0.04c0.25-0.11,0.37-0.4,0.26-0.66l-0.62-1.42c0.39-0.03,0.74-0.07,1.05-0.13l0.5,1.15
		c0.08,0.19,0.27,0.3,0.46,0.3c0.07,0,0.13-0.01,0.2-0.04c0.25-0.11,0.37-0.4,0.26-0.66l-0.42-0.96c0.13-0.04,0.27-0.07,0.36-0.1
		l0.84,0.63c0,0,0,0,0,0s0,0,0,0l7.1,5.3l-0.64,1.31c-0.24,0.49-0.37,1.04-0.39,1.61c-0.03,0.98-0.62,3.55-2.78,4.15
		c-0.2-0.21-0.36-0.35-0.38-0.37l-5.79-4.63c-0.06-0.05-0.13-0.08-0.2-0.1c-4.75-1.12-8.36-4.68-8.38-4.7l-2.38-2.57l-2.29-2.27
		C16.01,20.66,17.07,21.01,17.12,21.03z M13.53,21.65l2.96,2.93l2.38,2.56c0.15,0.15,3.78,3.74,8.76,4.95l5.69,4.55
		c0,0,0.34,0.3,0.64,0.68c0.17,0.23,0.21,0.51,0.1,0.77c-0.12,0.27-0.36,0.46-0.66,0.49c-0.79,0.09-2.04-0.04-3.47-1.14l-3.53-3.02
		l-1.14-1.21c-0.49-0.52-1.06-0.97-1.68-1.32l-3.2-1.8c-1.06-0.6-2.01-1.36-2.82-2.27l-4.84-5.42L13.53,21.65z"/>
</g>
</svg>
