<?xml version="1.0" encoding="utf-8"?>
<!-- Generator: Adobe Illustrator 25.2.3, SVG Export Plug-In . SVG Version: 6.00 Build 0)  -->
<svg version="1.1" id="Layer_1" xmlns="http://www.w3.org/2000/svg" xmlns:xlink="http://www.w3.org/1999/xlink" x="0px" y="0px"
	 viewBox="0 0 48 48" style="enable-background:new 0 0 48 48;" xml:space="preserve">
<style type="text/css">
	.st0{fill:none;}
	.st1{fill:none;stroke:#000000;stroke-linecap:round;stroke-linejoin:round;stroke-miterlimit:10;}
	.st2{fill:none;stroke:#000000;stroke-miterlimit:10;}
	.st3{fill:none;stroke:#000000;stroke-linecap:round;stroke-miterlimit:3;stroke-dasharray:3,2;}
	.st4{fill:none;stroke:#000000;stroke-linecap:round;stroke-miterlimit:10;}
</style>
<g>
	<path d="M30.52,19.75l-3.77,0.96c-0.22,0.06-0.38,0.26-0.38,0.48v5.61c0,0.23,0.16,0.43,0.38,0.48l3.77,0.96
		c0.04,0.01,0.08,0.02,0.12,0.02c0.11,0,0.22-0.04,0.31-0.11c0.12-0.09,0.19-0.24,0.19-0.39v-7.54c0-0.15-0.07-0.3-0.19-0.4
		S30.67,19.71,30.52,19.75z M30.14,27.13l-2.77-0.71v-4.83l2.77-0.71V27.13z"/>
	<path d="M36.95,19.74h-3.77c-0.28,0-0.5,0.22-0.5,0.5v7.54c0,0.28,0.22,0.5,0.5,0.5h3.77c0.28,0,0.5-0.22,0.5-0.5v-7.54
		C37.45,19.96,37.23,19.74,36.95,19.74z M36.45,27.28h-2.77v-6.54h2.77V27.28z"/>
	<path d="M45.1,24.01c0-2.22-1.68-4.03-3.83-4.28v-1.55c0-1.39-1.13-2.52-2.52-2.52H26.39c-0.15,0-0.29,0.07-0.39,0.18l-3.18,3.89
		h-1.46c-1.33-5.88-4.92-9.95-8.83-9.95c-5.11,0-9.27,6.38-9.27,14.22s4.16,14.22,9.27,14.22c4.23,0,7.74-3.98,8.84-9.95h1.44
		L26,32.17c0.09,0.12,0.24,0.18,0.39,0.18h12.36c1.39,0,2.52-1.13,2.52-2.52v-1.55C43.42,28.03,45.1,26.22,45.1,24.01z M12.54,37.23
		c-4.56,0-8.27-5.93-8.27-13.22c0-7.29,3.71-13.22,8.27-13.22c3.33,0,6.55,3.73,7.8,8.95h-7.3v-1.47c0-0.28-0.22-0.5-0.5-0.5
		s-0.5,0.22-0.5,0.5v1.97v7.54v1.97c0,0.28,0.22,0.5,0.5,0.5s0.5-0.22,0.5-0.5v-1.47h7.33C19.32,33.65,16.22,37.23,12.54,37.23z
		 M22.56,27.28h-9.52v-6.54h9.52V27.28z M40.27,29.84c0,0.84-0.68,1.52-1.52,1.52H26.62l-3.07-3.75v-7.18l3.07-3.75h12.13
		c0.84,0,1.52,0.68,1.52,1.52V29.84z M41.27,27.29v-6.56c1.6,0.24,2.83,1.62,2.83,3.28C44.1,25.67,42.87,27.04,41.27,27.29z"/>
</g>
</svg>
