<?xml version="1.0" encoding="utf-8"?>
<!-- Generator: Adobe Illustrator 25.2.3, SVG Export Plug-In . SVG Version: 6.00 Build 0)  -->
<svg version="1.1" id="Layer_1" xmlns="http://www.w3.org/2000/svg" xmlns:xlink="http://www.w3.org/1999/xlink" x="0px" y="0px"
	 viewBox="0 0 48 48" style="enable-background:new 0 0 48 48;" xml:space="preserve">
<g>
	<path d="M45.7,20.5h-5.8c-0.5,0-0.8,0.4-0.8,0.8v2.9h-2.3v-5.7c0-0.5-0.4-0.8-0.8-0.8h-2.6v-1.7c0-0.5-0.4-0.8-0.8-0.8h-5.8v-3.5
		h5.1c0.2,0,0.4-0.2,0.4-0.4c0-0.2-0.2-0.4-0.4-0.4H15.4c-0.2,0-0.4,0.2-0.4,0.4c0,0.2,0.2,0.4,0.4,0.4h4.7v3.5h-4.3
		c-0.5,0-0.8,0.4-0.8,0.8v1.7H8.4c-0.5,0-0.8,0.4-0.8,0.8v4.9H5.4v-4.1c0-0.2-0.2-0.4-0.4-0.4H4.2c-1.5,0-2.7,1.2-2.7,2.7v5
		c0,0.2,0.2,0.4,0.4,0.4h2.7v6.6c0,0.2,0.2,0.4,0.4,0.4c0.2,0,0.4-0.2,0.4-0.4v-5.3h2.2v4.9c0,0.5,0.4,0.8,0.8,0.8h5.5l4.4,3
		c0.1,0.1,0.3,0.1,0.5,0.1h17.1c0.5,0,0.8-0.4,0.8-0.8v-4.7H39v2.9c0,0.5,0.4,0.8,0.8,0.8h5.8c0.5,0,0.8-0.4,0.8-0.8V21.3
		C46.5,20.9,46.2,20.5,45.7,20.5z M20.9,11.6h5v3.5h-5V11.6z M2.3,21.6c0-1.1,0.9-1.9,1.9-1.9h0.4v6.5H2.3V21.6z M5.4,27.5v-0.9
		v-2.4h2.2v3.3H5.4z M35.9,36.4l-17.1,0l-4.4-3c-0.1-0.1-0.3-0.1-0.5-0.1H8.4V18.5H15c0.5,0,0.8-0.4,0.8-0.8v-1.7h16.7v1.7
		c0,0.5,0.4,0.8,0.8,0.8h2.6V36.4z M36.7,30.8V25H39v5.8H36.7z M45.7,35v-0.4h-5.8V21.3h5.8v13.3h0L45.7,35z"/>
	<g>
		<path d="M14.6,23.4c0.4,0.3,0.7,0.7,0.8,1.3h-0.9c-0.1-0.3-0.3-0.5-0.6-0.7c-0.3-0.2-0.6-0.3-0.9-0.3c-0.3,0-0.6,0.1-0.8,0.2
			c-0.2,0.1-0.4,0.4-0.5,0.6c-0.1,0.3-0.2,0.6-0.2,0.9c0,0.4,0.1,0.7,0.2,0.9c0.1,0.3,0.3,0.5,0.5,0.6c0.2,0.1,0.5,0.2,0.8,0.2
			c0.4,0,0.7-0.1,0.9-0.3c0.3-0.2,0.4-0.4,0.6-0.7h0.9c-0.1,0.5-0.4,0.9-0.8,1.3c-0.4,0.3-0.9,0.5-1.5,0.5c-0.5,0-0.9-0.1-1.2-0.3
			c-0.4-0.2-0.6-0.5-0.8-0.9s-0.3-0.8-0.3-1.3c0-0.5,0.1-0.9,0.3-1.3s0.5-0.7,0.8-0.9c0.4-0.2,0.8-0.3,1.2-0.3
			C13.7,22.9,14.2,23.1,14.6,23.4z"/>
		<path d="M20.2,23v5h-0.8v-2.2H17V28h-0.8v-5H17v2.1h2.3V23H20.2z"/>
		<path d="M22,23.6v1.5h1.8v0.6H22v1.5h2V28h-2.8v-5H24v0.6H22z"/>
		<path d="M28.5,23.4c0.4,0.3,0.7,0.7,0.8,1.3h-0.9c-0.1-0.3-0.3-0.5-0.6-0.7c-0.3-0.2-0.6-0.3-0.9-0.3c-0.3,0-0.6,0.1-0.8,0.2
			c-0.2,0.1-0.4,0.4-0.5,0.6c-0.1,0.3-0.2,0.6-0.2,0.9c0,0.4,0.1,0.7,0.2,0.9c0.1,0.3,0.3,0.5,0.5,0.6c0.2,0.1,0.5,0.2,0.8,0.2
			c0.4,0,0.7-0.1,0.9-0.3c0.3-0.2,0.4-0.4,0.6-0.7h0.9c-0.1,0.5-0.4,0.9-0.8,1.3C28.1,27.8,27.6,28,27,28c-0.5,0-0.9-0.1-1.2-0.3
			c-0.4-0.2-0.6-0.5-0.8-0.9c-0.2-0.4-0.3-0.8-0.3-1.3c0-0.5,0.1-0.9,0.3-1.3c0.2-0.4,0.5-0.7,0.8-0.9c0.4-0.2,0.8-0.3,1.2-0.3
			C27.6,22.9,28.1,23.1,28.5,23.4z"/>
		<path d="M31.7,25.4l2.2,2.5h-1l-2-2.3V28h-0.8v-5h0.8v2.3l2-2.3h1L31.7,25.4z"/>
	</g>
</g>
</svg>
