<?xml version="1.0" encoding="utf-8"?>
<!-- Generator: Adobe Illustrator 25.2.3, SVG Export Plug-In . SVG Version: 6.00 Build 0)  -->
<svg version="1.1" id="Layer_1" xmlns="http://www.w3.org/2000/svg" xmlns:xlink="http://www.w3.org/1999/xlink" x="0px" y="0px"
	 viewBox="0 0 48 48" style="enable-background:new 0 0 48 48;" xml:space="preserve">
<path d="M45.7,20.5h-5.8c-0.5,0-0.8,0.4-0.8,0.8v2.9h-2.3v-5.7c0-0.5-0.4-0.8-0.8-0.8h-2.6v-1.7c0-0.5-0.4-0.8-0.8-0.8h-5.8v-3.5
	h5.1c0.2,0,0.4-0.2,0.4-0.4c0-0.2-0.2-0.4-0.4-0.4H15.4c-0.2,0-0.4,0.2-0.4,0.4c0,0.2,0.2,0.4,0.4,0.4h4.7v3.5h-4.3
	c-0.5,0-0.8,0.4-0.8,0.8v1.7H8.4c-0.5,0-0.8,0.4-0.8,0.8v4.9H5.4v-4.1c0-0.2-0.2-0.4-0.4-0.4H4.2c-1.5,0-2.7,1.2-2.7,2.7v5
	c0,0.2,0.2,0.4,0.4,0.4h2.7v6.6c0,0.2,0.2,0.4,0.4,0.4c0.2,0,0.4-0.2,0.4-0.4v-5.3h2.2v4.9c0,0.5,0.4,0.8,0.8,0.8h5.5l4.4,3
	c0.1,0.1,0.3,0.1,0.5,0.1h17.1c0.5,0,0.8-0.4,0.8-0.8v-4.7H39v2.9c0,0.5,0.4,0.8,0.8,0.8h5.8c0.5,0,0.8-0.4,0.8-0.8V21.3
	C46.5,20.9,46.2,20.5,45.7,20.5z M20.9,11.6h5v3.5h-5V11.6z M2.3,21.6c0-1.1,0.9-1.9,1.9-1.9h0.4v6.5H2.3V21.6z M5.4,27.5v-0.9v-2.4
	h2.2v3.3H5.4z M35.9,36.4l-17.1,0l-4.4-3c-0.1-0.1-0.3-0.1-0.5-0.1H8.4V18.5H15c0.5,0,0.8-0.4,0.8-0.8v-1.7h16.7v1.7
	c0,0.5,0.4,0.8,0.8,0.8h2.6V36.4z M36.7,30.8V25H39v5.8H36.7z M45.7,35v-0.4h-5.8V21.3h5.8v13.3h0L45.7,35z"/>
<g>
	<path d="M17.1,27.8c-0.1,0.2-0.3,0.4-0.6,0.5c-0.3,0.1-0.6,0.2-0.9,0.2c-0.4,0-0.7-0.1-1-0.2c-0.3-0.1-0.5-0.3-0.7-0.5
		c-0.2-0.2-0.3-0.5-0.3-0.8h0.9c0,0.2,0.1,0.4,0.3,0.6s0.4,0.2,0.7,0.2c0.3,0,0.5-0.1,0.6-0.2s0.2-0.3,0.2-0.5
		c0-0.2-0.1-0.3-0.2-0.5c-0.1-0.1-0.2-0.2-0.4-0.3c-0.2-0.1-0.4-0.1-0.6-0.2c-0.3-0.1-0.6-0.2-0.8-0.3c-0.2-0.1-0.4-0.3-0.5-0.5
		c-0.1-0.2-0.2-0.5-0.2-0.8c0-0.3,0.1-0.5,0.2-0.8c0.1-0.2,0.3-0.4,0.6-0.5c0.3-0.1,0.6-0.2,0.9-0.2c0.5,0,1,0.1,1.3,0.4
		c0.3,0.3,0.5,0.6,0.5,1h-0.9c0-0.2-0.1-0.4-0.3-0.5c-0.2-0.1-0.4-0.2-0.6-0.2c-0.2,0-0.4,0.1-0.6,0.2c-0.1,0.1-0.2,0.3-0.2,0.5
		c0,0.2,0.1,0.3,0.2,0.4c0.1,0.1,0.2,0.2,0.4,0.3c0.2,0.1,0.4,0.1,0.6,0.2c0.3,0.1,0.6,0.2,0.8,0.3c0.2,0.1,0.4,0.3,0.5,0.5
		s0.2,0.5,0.2,0.8C17.3,27.3,17.2,27.6,17.1,27.8z"/>
	<path d="M21.6,23.2v0.7h-1.5v4.6h-0.9v-4.6h-1.5v-0.7H21.6z"/>
	<path d="M26,23.5c0.4,0.2,0.7,0.6,0.9,1c0.2,0.4,0.3,0.9,0.3,1.4c0,0.5-0.1,1-0.3,1.4c-0.2,0.4-0.5,0.7-0.9,1
		c-0.4,0.2-0.8,0.3-1.3,0.3c-0.5,0-0.9-0.1-1.3-0.3c-0.4-0.2-0.7-0.6-0.9-1c-0.2-0.4-0.3-0.9-0.3-1.4c0-0.5,0.1-1,0.3-1.4
		c0.2-0.4,0.5-0.7,0.9-1c0.4-0.2,0.8-0.3,1.3-0.3C25.2,23.1,25.6,23.2,26,23.5z M23.8,24.1c-0.3,0.2-0.5,0.4-0.6,0.7
		c-0.1,0.3-0.2,0.6-0.2,1c0,0.4,0.1,0.7,0.2,1c0.1,0.3,0.4,0.5,0.6,0.7c0.3,0.2,0.6,0.2,0.9,0.2c0.3,0,0.6-0.1,0.9-0.2
		c0.3-0.2,0.5-0.4,0.6-0.7c0.1-0.3,0.2-0.6,0.2-1c0-0.4-0.1-0.7-0.2-1c-0.1-0.3-0.4-0.5-0.6-0.7c-0.3-0.2-0.6-0.2-0.9-0.2
		C24.3,23.9,24,24,23.8,24.1z"/>
	<path d="M29,26.4v2.1h-0.9v-5.3h1.8c0.6,0,1.1,0.1,1.4,0.4c0.3,0.3,0.5,0.7,0.5,1.2c0,0.5-0.2,0.9-0.5,1.2
		c-0.3,0.3-0.8,0.4-1.4,0.4H29z M30.9,24.8c0-0.3-0.1-0.5-0.3-0.7c-0.2-0.2-0.4-0.2-0.8-0.2H29v1.8h0.9
		C30.5,25.7,30.9,25.4,30.9,24.8z"/>
</g>
</svg>
