<?xml version="1.0" encoding="utf-8"?>
<!-- Generator: Adobe Illustrator 25.2.3, SVG Export Plug-In . SVG Version: 6.00 Build 0)  -->
<svg version="1.1" id="Layer_1" xmlns="http://www.w3.org/2000/svg" xmlns:xlink="http://www.w3.org/1999/xlink" x="0px" y="0px"
	 viewBox="0 0 48 48" style="enable-background:new 0 0 48 48;" xml:space="preserve">
<g>
	<path d="M39.61,37.54c-0.28,0-0.5,0.22-0.5,0.5v5.11H14.57V25.97l16.96,8.55c0.25,0.12,0.55,0.03,0.67-0.22
		c0.12-0.25,0.03-0.55-0.22-0.67l-17.69-8.92c-0.15-0.08-0.34-0.07-0.49,0.02c-0.15,0.09-0.24,0.25-0.24,0.43v18.49
		c0,0.28,0.22,0.5,0.5,0.5h25.54c0.28,0,0.5-0.22,0.5-0.5v-5.61C40.11,37.76,39.89,37.54,39.61,37.54z"/>
	<path d="M17.2,13.79c-0.04-0.13-0.13-0.25-0.25-0.31l-3.09-1.57c-0.23-0.12-0.51-0.04-0.65,0.18l-2.75,4.27
		c-0.13,0.21-0.1,0.48,0.09,0.65l2.75,2.42c0.09,0.08,0.21,0.12,0.33,0.12c0.03,0,0.05,0,0.08-0.01c0.15-0.02,0.28-0.11,0.35-0.24
		l3.09-5.12C17.22,14.07,17.24,13.93,17.2,13.79z M13.51,18.28l-1.98-1.74l2.27-3.53l0.83,0.42l-0.82,0.45
		c-0.08,0.04-0.15,0.11-0.19,0.19l-1.37,2.37c-0.14,0.24-0.06,0.54,0.18,0.68c0.08,0.05,0.16,0.07,0.25,0.07
		c0.17,0,0.34-0.09,0.43-0.25l1.3-2.25l1.3-0.71l0.3,0.15L13.51,18.28z"/>
	<path d="M40.86,35.78c0-0.02-0.01-0.04-0.01-0.06c0-0.05,0-0.09-0.01-0.13c0,0,0,0,0-0.01l-1.51-4.93
		c-0.08-0.26-0.36-0.41-0.62-0.33c-0.26,0.08-0.41,0.36-0.33,0.62l1.15,3.75L15.34,21.37l4.73-7.6c0.04-0.07,0.07-0.15,0.08-0.24
		l0.15-2.86l3.55-1.64c0.12-0.06,0.22-0.16,0.26-0.29c0.04-0.13,0.04-0.27-0.03-0.39c0-0.01-0.01-0.02-0.02-0.05
		c3.27-1.51,8.38-0.89,8.43-0.88c0.14,0.02,0.29-0.03,0.39-0.12C33,7.2,33.06,7.06,33.06,6.92V4.55c0-0.25-0.18-0.46-0.43-0.49
		c-4.54-0.66-8.91,0.46-10.25,0.86c-0.04-0.07-0.06-0.12-0.06-0.12c-0.12-0.24-0.41-0.35-0.66-0.23L9.85,10.12
		c-0.24,0.11-0.35,0.4-0.25,0.64l0.62,1.5l-3.01,5.16c-0.07,0.12-0.09,0.25-0.05,0.38c0.04,0.13,0.12,0.24,0.24,0.31l7,3.88
		c0,0,0,0,0,0c0,0,0,0,0,0L39.09,35.6l-4.52,1.39c-0.26,0.08-0.41,0.36-0.33,0.62c0.07,0.21,0.26,0.35,0.48,0.35
		c0.05,0,0.1-0.01,0.15-0.02l5.64-1.74c0.02-0.01,0.04-0.02,0.06-0.03c0.02-0.01,0.04-0.02,0.06-0.03c0.06-0.04,0.12-0.09,0.16-0.16
		c0,0,0.01,0,0.01-0.01c0,0,0,0,0,0C40.83,35.91,40.85,35.85,40.86,35.78C40.86,35.78,40.86,35.78,40.86,35.78z M32.06,4.99v1.38
		c-1.48-0.13-5.54-0.32-8.44,1.03c-0.24-0.49-0.53-1.07-0.78-1.57C24.24,5.43,28.09,4.51,32.06,4.99z M11.21,12.55
		c0.08-0.14,0.09-0.3,0.03-0.44l-0.54-1.29l10.94-5.14c0.1,0.2,0.22,0.45,0.36,0.72l0.94,1.89c0,0,0,0,0,0
		c0.01,0.01,0.01,0.03,0.02,0.04l-3.35,1.55c-0.17,0.08-0.28,0.24-0.29,0.43l-0.16,3.03l-4.69,7.54l-6.14-3.4L11.21,12.55z"/>
</g>
</svg>
