<?xml version="1.0" encoding="utf-8"?>
<!-- Generator: Adobe Illustrator 25.2.3, SVG Export Plug-In . SVG Version: 6.00 Build 0)  -->
<svg version="1.1" id="Layer_1" xmlns="http://www.w3.org/2000/svg" xmlns:xlink="http://www.w3.org/1999/xlink" x="0px" y="0px"
	 viewBox="0 0 48 48" style="enable-background:new 0 0 48 48;" xml:space="preserve">
<g>
	<path d="M37.92,12.06h-6.41c-0.26-3.89-3.5-6.98-7.46-6.98c-3.95,0-7.19,3.08-7.45,6.97h-6.52c-3.08,0-5.59,2.51-5.59,5.59v19.7
		c0,3.07,2.51,5.58,5.59,5.59h27.83c3.08,0,5.59-2.51,5.59-5.59V17.65C43.51,14.57,41,12.06,37.92,12.06z M24.06,6.08
		c3.57,0,6.48,2.91,6.48,6.48s-2.91,6.48-6.48,6.48c-3.57,0-6.48-2.91-6.48-6.48S20.49,6.08,24.06,6.08z M26.12,26.55
		c0,1.14-0.92,2.06-2.06,2.06S22,27.69,22,26.55l-0.05-6.82c0.67,0.2,1.38,0.31,2.11,0.31c0.7,0,1.37-0.1,2.01-0.28L26.12,26.55z
		 M24.09,34.14c1.19,0,2.15,0.96,2.15,2.15s-0.96,2.15-2.15,2.15s-2.15-0.96-2.15-2.15S22.9,34.14,24.09,34.14z M42.51,37.34
		c0,2.53-2.06,4.59-4.59,4.59H10.09c-2.53-0.01-4.59-2.07-4.59-4.59v-19.7c0-2.53,2.06-4.59,4.59-4.59h6.52
		c0.18,2.8,1.91,5.18,4.34,6.3l0.06,7.2c0,0.8,0.31,1.52,0.81,2.06h-8.88v-5.68c1.5-0.24,2.65-1.53,2.65-3.1
		c0-1.74-1.41-3.15-3.15-3.15c-1.74,0-3.15,1.41-3.15,3.15c0,1.57,1.15,2.86,2.65,3.1v10.26c-1.5,0.24-2.65,1.53-2.65,3.1
		c0,1.74,1.41,3.15,3.15,3.15c1.74,0,3.15-1.41,3.15-3.15c0-1.57-1.15-2.86-2.65-3.1v-3.58h10.63v3.58
		c-1.48,0.25-2.62,1.54-2.62,3.1c0,1.74,1.41,3.15,3.15,3.15c1.74,0,3.15-1.41,3.15-3.15c0-1.58-1.17-2.87-2.68-3.1v-3.58h10.68
		v9.33c0,0.28,0.22,0.5,0.5,0.5s0.5-0.22,0.5-0.5V22.93c1.5-0.24,2.65-1.53,2.65-3.1c0-1.74-1.41-3.15-3.15-3.15
		c-1.74,0-3.15,1.41-3.15,3.15c0,1.57,1.15,2.86,2.65,3.1v5.68h-8.93c0.5-0.55,0.81-1.27,0.81-2.06l-0.06-7.14
		c2.49-1.1,4.26-3.51,4.45-6.35h6.41c2.53,0,4.59,2.06,4.59,4.59V37.34z M12.43,21.98c-1.19,0-2.15-0.96-2.15-2.15
		s0.96-2.15,2.15-2.15s2.15,0.96,2.15,2.15S13.62,21.98,12.43,21.98z M12.43,34.14c1.19,0,2.15,0.96,2.15,2.15s-0.96,2.15-2.15,2.15
		s-2.15-0.96-2.15-2.15S11.24,34.14,12.43,34.14z M35.74,21.98c-1.19,0-2.15-0.96-2.15-2.15s0.96-2.15,2.15-2.15
		s2.15,0.96,2.15,2.15S36.93,21.98,35.74,21.98z"/>
	<path d="M20.73,13.06c0.28,0,0.5-0.22,0.5-0.5c0-1.79,1.45-3.24,3.24-3.24c0.28,0,0.5-0.22,0.5-0.5s-0.22-0.5-0.5-0.5
		c-2.34,0-4.24,1.9-4.24,4.24C20.23,12.84,20.45,13.06,20.73,13.06z"/>
</g>
</svg>
