<?xml version="1.0" encoding="utf-8"?>
<!-- Generator: Adobe Illustrator 25.2.3, SVG Export Plug-In . SVG Version: 6.00 Build 0)  -->
<svg version="1.1" id="Layer_1" xmlns="http://www.w3.org/2000/svg" xmlns:xlink="http://www.w3.org/1999/xlink" x="0px" y="0px"
	 viewBox="0 0 48 48" style="enable-background:new 0 0 48 48;" xml:space="preserve">
<path d="M37.1,31.7V16.3c2.5-0.3,4.4-2.3,4.4-4.9c0-2.7-2.2-4.9-4.9-4.9c-2.7,0-4.9,2.2-4.9,4.9c0,2.5,1.9,4.6,4.4,4.9v7.2H24.5
	v-7.2C27,16,29,13.9,29,11.4c0-2.7-2.2-4.9-4.9-4.9c-2.7,0-4.9,2.2-4.9,4.9c0,2.5,1.9,4.6,4.4,4.9v7.2h-9.2c-1.3,0-2.4-1.1-2.4-2.4
	v-4.8c2.5-0.3,4.4-2.3,4.4-4.9c0-2.7-2.2-4.9-4.9-4.9c-2.7,0-4.9,2.2-4.9,4.9c0,2.5,1.9,4.6,4.4,4.9V21c0,1.9,1.5,3.4,3.4,3.4h9.2
	v7.3c-2.5,0.3-4.4,2.3-4.4,4.9c0,2.7,2.2,4.9,4.9,4.9c2.7,0,4.9-2.2,4.9-4.9c0-2.5-1.9-4.6-4.4-4.9v-7.3h11.6v7.3
	c-2.5,0.3-4.4,2.3-4.4,4.9c0,2.7,2.2,4.9,4.9,4.9c2.7,0,4.9-2.2,4.9-4.9C41.5,34.1,39.6,32,37.1,31.7z M20.1,11.4
	c0-2.2,1.8-3.9,3.9-3.9S28,9.2,28,11.4s-1.8,3.9-3.9,3.9S20.1,13.5,20.1,11.4z M7.5,11.4c0-2.2,1.8-3.9,3.9-3.9s3.9,1.8,3.9,3.9
	s-1.8,3.9-3.9,3.9S7.5,13.5,7.5,11.4z M28,36.6c0,2.2-1.8,3.9-3.9,3.9s-3.9-1.8-3.9-3.9s1.8-3.9,3.9-3.9S28,34.5,28,36.6z
	 M32.6,11.4c0-2.2,1.8-3.9,3.9-3.9s3.9,1.8,3.9,3.9s-1.8,3.9-3.9,3.9S32.6,13.5,32.6,11.4z M36.6,40.5c-2.2,0-3.9-1.8-3.9-3.9
	s1.8-3.9,3.9-3.9s3.9,1.8,3.9,3.9S38.7,40.5,36.6,40.5z"/>
</svg>
