<?xml version="1.0" encoding="utf-8"?>
<!-- Generator: Adobe Illustrator 25.2.3, SVG Export Plug-In . SVG Version: 6.00 Build 0)  -->
<svg version="1.1" id="Layer_1" xmlns="http://www.w3.org/2000/svg" xmlns:xlink="http://www.w3.org/1999/xlink" x="0px" y="0px"
	 viewBox="0 0 48 48" style="enable-background:new 0 0 48 48;" xml:space="preserve">
<g>
	<path d="M19.5,21.2l-2.7,2.7l-1.1-1.1c-0.2-0.2-0.5-0.2-0.7,0c-0.2,0.2-0.2,0.5,0,0.7l1.4,1.4c0.1,0.1,0.2,0.1,0.4,0.1
		c0.1,0,0.3,0,0.4-0.1l3-3c0.2-0.2,0.2-0.5,0-0.7S19.7,21,19.5,21.2z"/>
	<path d="M38.8,30.4c-0.9,0-1.7,0.7-1.7,1.7s0.7,1.7,1.7,1.7s1.7-0.7,1.7-1.7S39.7,30.4,38.8,30.4z M38.8,32.7
		c-0.4,0-0.7-0.3-0.7-0.7s0.3-0.7,0.7-0.7c0.4,0,0.7,0.3,0.7,0.7S39.2,32.7,38.8,32.7z"/>
	<path d="M44.1,25.7c-0.1-1.3-1-2.5-2.2-2.8L41,18.7c0,0,0-0.1,0-0.1v-1.3c0-1.1-0.9-2-1.9-2h-4.5v-1.7c0-0.3-0.2-0.5-0.5-0.5h-7.7
		v-1c0-1.2-1-2.2-2.2-2.2h-18c0,0,0,0,0,0c0,0,0,0,0,0c-1.2,0-2.2,1-2.2,2.2c0,0.3,0.2,0.5,0.5,0.5h2.9v20.1v3.1V36c0,0,0,0.1,0,0.1
		c0.1,1,0.9,1.9,2,2c0,0,0.1,0,0.1,0h17.9c1.6,0,2.9-1.3,2.9-2.9V35c0-0.3-0.2-0.5-0.5-0.5h-3.3v-2h7.7h1.2c0.2,1.7,1.7,3,3.5,3
		c1.8,0,3.2-1.3,3.5-3h1.3c0.3,0,0.5-0.2,0.5-0.5v-3.7v-2.5L44.1,25.7C44.1,25.8,44.1,25.7,44.1,25.7z M43.1,27.9h-0.4
		c-0.4,0-0.8-0.3-0.8-0.8v-0.9h1.2V27.9z M34.6,19.1h5.5l0.7,3.6h-6.2V19.1z M39.1,16.4c0.5,0,0.9,0.4,0.9,1v0.8h-5.4v-1.7H39.1z
		 M5.1,11.7C5.2,11.3,5.7,11,6.1,11c0.5,0,0.9,0.3,1.1,0.7H5.1z M27.3,37h-16c0.2-0.3,0.4-0.8,0.4-1.2v-0.3h17.5
		C29,36.4,28.2,37,27.3,37z M11.2,34.5c-0.3,0-0.5,0.2-0.5,0.5v0.8c0,0.7-0.5,1.2-1.2,1.2s-1.2-0.5-1.2-1.2v-3.1V12.2
		c0-0.4-0.1-0.8-0.4-1.2h16.2c0.7,0,1.2,0.5,1.2,1.2v22.4H11.2z M38.8,34.6c-1.4,0-2.5-1.1-2.5-2.5s1.1-2.5,2.5-2.5s2.5,1.1,2.5,2.5
		S40.2,34.6,38.8,34.6z M42.3,31.6c-0.2-1.7-1.7-3-3.5-3c-1.8,0-3.2,1.3-3.5,3h-0.7v-4.5c0-0.3-0.2-0.5-0.5-0.5s-0.5,0.2-0.5,0.5
		v4.5h-7.2v-1.5h3.5c0.3,0,0.5-0.2,0.5-0.5s-0.2-0.5-0.5-0.5h-3.5V14.2h7.2v1.7v2.7v5.6c0,0.3,0.2,0.5,0.5,0.5s0.5-0.2,0.5-0.5v-0.5
		h6.3c1,0,1.8,0.7,2.1,1.6h-1.6c-0.3,0-0.5,0.2-0.5,0.5v1.4c0,1,0.8,1.8,1.8,1.8h0.4v2.7H42.3z"/>
	<path d="M17.6,17.5c-3.1,0-5.7,2.6-5.7,5.7c0,3.1,2.6,5.7,5.7,5.7s5.7-2.6,5.7-5.7C23.3,20.1,20.7,17.5,17.6,17.5z M17.6,27.9
		c-2.6,0-4.7-2.1-4.7-4.7s2.1-4.7,4.7-4.7s4.7,2.1,4.7,4.7S20.2,27.9,17.6,27.9z"/>
</g>
</svg>
