<?xml version="1.0" encoding="utf-8"?>
<!-- Generator: Adobe Illustrator 25.2.3, SVG Export Plug-In . SVG Version: 6.00 Build 0)  -->
<svg version="1.1" id="Layer_1" xmlns="http://www.w3.org/2000/svg" xmlns:xlink="http://www.w3.org/1999/xlink" x="0px" y="0px"
	 viewBox="0 0 48 48" style="enable-background:new 0 0 48 48;" xml:space="preserve">
<g>
	<path d="M15.38,12.94c0.05,0.12,0.15,0.22,0.27,0.27c0.06,0.03,0.13,0.04,0.19,0.04h4.14c0.28,0,0.5-0.22,0.5-0.5
		s-0.22-0.5-0.5-0.5h-2.93l4.33-4.34c0.19-0.2,0.19-0.51,0-0.71c-0.19-0.19-0.51-0.2-0.71,0l-4.33,4.33V8.63
		c0-0.28-0.22-0.5-0.5-0.5s-0.5,0.22-0.5,0.5v4.12c0,0,0,0,0,0C15.34,12.82,15.35,12.88,15.38,12.94z"/>
	<path d="M32.75,35.07c0-0.06-0.01-0.12-0.04-0.18c-0.02-0.05-0.06-0.1-0.1-0.14c-0.01-0.01-0.01-0.01-0.01-0.02c0,0,0,0,0,0
		c-0.05-0.05-0.1-0.08-0.16-0.11c-0.06-0.03-0.13-0.04-0.19-0.04h-4.13c-0.28,0-0.5,0.22-0.5,0.5s0.22,0.5,0.5,0.5h2.92l-4.32,4.33
		c-0.2,0.2-0.2,0.51,0,0.71c0.1,0.1,0.23,0.15,0.35,0.15s0.26-0.05,0.35-0.15l4.32-4.33l0.01,2.92c0,0.28,0.22,0.5,0.5,0.5h0
		c0.28,0,0.5-0.22,0.5-0.5l-0.01-4.12C32.75,35.07,32.75,35.07,32.75,35.07z"/>
	<path d="M43.46,10.6l-6.15-6.15c-0.5-0.5-1.28-0.5-1.78,0l-6.8,6.8l-0.68-0.68c-1.27-1.27-2.67-0.71-3.76-0.07l-1.93,1.23
		c0,0,0,0.01-0.01,0.01c0,0-0.01,0-0.01,0.01c-0.06,0.04-0.11,0.1-0.14,0.16c-0.01,0.01-0.01,0.03-0.02,0.05
		c-0.02,0.05-0.04,0.11-0.04,0.17c0,0.01-0.01,0.02-0.01,0.03c0,0.01,0.01,0.03,0.01,0.04c0,0.05,0.02,0.1,0.04,0.15
		c0.01,0.02,0.02,0.04,0.03,0.07c0.01,0.01,0.01,0.02,0.01,0.03l0.86,1.21c0.53,0.74,0.65,1.67,0.33,2.47
		c-0.22,0.56-0.61,1.11-1.14,1.64l-0.89,0.89c-0.96,0.96-0.96,2.53,0,3.51l3.66,3.66c0.48,0.48,1.11,0.72,1.75,0.72
		c0.63,0,1.27-0.24,1.76-0.72l1.07-1.07c0.46-0.46,0.95-0.81,1.45-1.04c1.06-0.48,1.93-0.4,2.59,0.25l1.73,1.55
		c0.02,0.02,0.05,0.03,0.07,0.04c0.01,0.01,0.03,0.02,0.04,0.02c0.2,0.1,0.44,0.07,0.59-0.1c0.04-0.04,0.06-0.09,0.08-0.14l1.19-1.8
		c0.55-1.02,1.13-2.51-0.09-3.73l-0.63-0.63l6.8-6.8C43.96,11.88,43.96,11.09,43.46,10.6z M30.67,22.79
		c-0.61,0.27-1.2,0.69-1.75,1.24l-1.07,1.07c-0.58,0.57-1.52,0.58-2.09,0l-3.66-3.66c-0.57-0.58-0.58-1.52,0-2.1l0.89-0.89
		c0.63-0.63,1.09-1.29,1.36-1.98c0.34-0.86,0.32-1.82-0.04-2.68l0.49,0.31c3.19,2.14,5.93,4.81,8.15,7.93l0.37,0.53
		C32.55,22.3,31.64,22.36,30.67,22.79z M36.52,23.01l-0.81,1.22l-1.95-2.76c-2.29-3.22-5.12-5.98-8.42-8.19l-1.78-1.13l1.25-0.8
		c1.37-0.81,1.97-0.64,2.53-0.08l1.03,1.03c0,0,0,0,0,0l7.22,7.22c0,0,0,0,0,0l0.98,0.98C37.18,21.1,37.15,21.83,36.52,23.01z
		 M42.76,11.67l-6.8,6.8l-6.51-6.51l6.79-6.8c0.11-0.11,0.26-0.1,0.36,0l6.15,6.15C42.86,11.41,42.86,11.56,42.76,11.67z"/>
	<path d="M26.92,30.09l-8.96-8.96c-0.18-0.19-0.43-0.3-0.7-0.3c-0.3-0.02-0.53,0.1-0.73,0.3l-6.25,6.25c-0.5,0.5-0.5,1.28,0,1.78
		l0.36,0.36l-6.12,6.12c-0.24,0.24-0.37,0.55-0.37,0.89c0,0.33,0.13,0.65,0.37,0.89l6.15,6.15c0.25,0.25,0.57,0.37,0.89,0.37
		c0.32,0,0.64-0.12,0.89-0.37l6.12-6.12l0.31,0.31c0.25,0.25,0.57,0.37,0.89,0.37c0.32,0,0.64-0.12,0.89-0.37l6.25-6.25
		C27.32,31.11,27.32,30.48,26.92,30.09z M11.76,42.86c-0.1,0.1-0.26,0.11-0.36,0l-6.15-6.15c-0.06-0.07-0.08-0.13-0.08-0.18
		c0-0.05,0.01-0.12,0.08-0.18l6.12-6.12l6.51,6.51L11.76,42.86z M19.97,37.05c-0.1,0.11-0.26,0.11-0.36,0l-0.64-0.64
		c-0.01-0.01-0.01-0.02-0.02-0.03l-7.22-7.22c-0.01-0.01-0.02-0.01-0.03-0.02L11,28.45c-0.1-0.11-0.1-0.26,0-0.36l6.25-6.25l0,0
		l8.96,8.96L19.97,37.05z"/>
	<path d="M26.67,18.27C26.5,18.09,26.26,18,26.02,18c-0.24,0-0.46,0.1-0.62,0.27l-1.4,1.4c-0.24,0.24-0.37,0.56-0.37,0.89
		c0,0.33,0.13,0.65,0.37,0.89L26,23.43c0.25,0.25,0.57,0.37,0.89,0.37c0.32,0,0.64-0.12,0.89-0.37l1.39-1.39
		c0.18-0.16,0.27-0.39,0.28-0.63c0-0.24-0.09-0.48-0.27-0.65L26.67,18.27z M27.07,22.73c-0.11,0.1-0.26,0.1-0.36,0l-1.99-1.99
		c-0.06-0.06-0.08-0.13-0.08-0.18c0-0.05,0.01-0.12,0.08-0.18l1.3-1.35l2.38,2.38L27.07,22.73z"/>
	<path d="M16.47,25.05l-2.3,2.3c-0.4,0.4-0.4,1.02,0,1.42l4.59,4.59c0.19,0.19,0.44,0.3,0.71,0.3c0,0,0,0,0,0
		c0.27,0,0.52-0.11,0.71-0.3l2.3-2.3c0.4-0.4,0.4-1.02,0-1.42l-4.59-4.59C17.5,24.67,16.87,24.66,16.47,25.05z M21.77,30.35
		l-2.3,2.3l-4.59-4.59l2.31-2.29L21.77,30.35z"/>
</g>
</svg>
