<?xml version="1.0" encoding="utf-8"?>
<!-- Generator: Adobe Illustrator 25.2.3, SVG Export Plug-In . SVG Version: 6.00 Build 0)  -->
<svg version="1.1" id="Layer_1" xmlns="http://www.w3.org/2000/svg" xmlns:xlink="http://www.w3.org/1999/xlink" x="0px" y="0px"
	 viewBox="0 0 48 48" style="enable-background:new 0 0 48 48;" xml:space="preserve">
<g>
	<path d="M17.53,24.36c0.28,0,0.5-0.22,0.5-0.5v-3.73c0-0.28-0.22-0.5-0.5-0.5s-0.5,0.22-0.5,0.5v3.73
		C17.03,24.14,17.25,24.36,17.53,24.36z"/>
	<path d="M17.53,24.98c-0.36,0-0.65,0.29-0.65,0.65s0.29,0.65,0.65,0.65c0.36,0,0.65-0.29,0.65-0.65S17.89,24.98,17.53,24.98z"/>
	<path d="M38.99,30.5c-0.93,0-1.68,0.75-1.68,1.68c0,0.93,0.75,1.68,1.68,1.68c0.93,0,1.68-0.75,1.68-1.68
		C40.67,31.25,39.92,30.5,38.99,30.5z M38.99,32.86c-0.38,0-0.68-0.31-0.68-0.68s0.31-0.68,0.68-0.68s0.68,0.3,0.68,0.68
		S39.37,32.86,38.99,32.86z"/>
	<path d="M44.3,25.82c0-0.06-0.01-0.12-0.04-0.18c-0.11-1.31-1.01-2.39-2.22-2.77l-0.84-4.23c0,0,0,0,0,0
		c0-0.02,0.01-0.04,0.01-0.06v-1.3c0-1.08-0.88-1.95-1.95-1.95h-4.58v-1.78c0-0.28-0.22-0.5-0.5-0.5h-7.79v-1.04
		c0-1.21-0.99-2.2-2.2-2.2H5.95c0,0-0.01,0-0.01,0c-0.01,0-0.02,0-0.03,0c-1.22,0-2.21,0.99-2.21,2.21c0,0.28,0.22,0.5,0.5,0.5h2.92
		v20.31v3.15v0.12c0,0.04,0.01,0.07,0.02,0.11c0.11,1.05,0.94,1.89,2,1.98c0.03,0,0.06,0.01,0.09,0.01h18.16
		c1.59,0,2.88-1.29,2.88-2.88v-0.13c0-0.28-0.22-0.5-0.5-0.5h-3.38v-2h7.79h1.28c0.25,1.74,1.73,3.08,3.53,3.08s3.28-1.34,3.53-3.08
		h1.27c0.28,0,0.5-0.22,0.5-0.5v-3.65c0-0.02,0.01-0.03,0.01-0.05V25.82z M43.29,27.98h-0.41c-0.43,0-0.78-0.35-0.78-0.78v-0.88
		h1.19V27.98z M34.69,16.33h4.57c0.52,0,0.95,0.43,0.95,0.95v0.8h-5.52V16.33z M40.27,19.08l0.72,3.63h-6.31v-3.63H40.27z
		 M4.81,11.52c0.19-0.42,0.61-0.71,1.1-0.71s0.91,0.29,1.1,0.71H4.81z M27.39,37.19H11.18c0.23-0.35,0.36-0.76,0.36-1.21v-0.3h17.69
		C29.06,36.54,28.3,37.19,27.39,37.19z M11.04,34.68c-0.28,0-0.5,0.22-0.5,0.5v0.8c0,0.67-0.54,1.21-1.21,1.21s-1.21-0.54-1.21-1.21
		v-3.15V12.02c0-0.45-0.14-0.86-0.36-1.21h16.43c0.66,0,1.2,0.54,1.2,1.2v22.67H11.04z M38.99,34.76c-1.42,0-2.58-1.16-2.58-2.58
		s1.16-2.58,2.58-2.58s2.58,1.16,2.58,2.58S40.41,34.76,38.99,34.76z M42.52,31.68c-0.25-1.74-1.73-3.08-3.53-3.08
		s-3.28,1.34-3.53,3.08h-0.78v-4.53c0-0.28-0.22-0.5-0.5-0.5s-0.5,0.22-0.5,0.5v4.53h-7.29v-1.53h3.57c0.28,0,0.5-0.22,0.5-0.5
		s-0.22-0.5-0.5-0.5h-3.57v-15.1h7.29v10.22c0,0.28,0.22,0.5,0.5,0.5s0.5-0.22,0.5-0.5v-0.56h6.42c1.01,0,1.85,0.68,2.1,1.61h-1.6
		c-0.28,0-0.5,0.22-0.5,0.5v1.38c0,0.98,0.8,1.78,1.78,1.78h0.41v2.7H42.52z"/>
	<path d="M17.53,17.44c-3.18,0-5.77,2.59-5.77,5.77s2.59,5.77,5.77,5.77s5.77-2.59,5.77-5.77S20.71,17.44,17.53,17.44z M17.53,27.98
		c-2.63,0-4.77-2.14-4.77-4.77c0-2.63,2.14-4.77,4.77-4.77s4.77,2.14,4.77,4.77C22.3,25.84,20.16,27.98,17.53,27.98z"/>
</g>
</svg>
